<svg width="13" height="16" viewBox="0 0 13 16" fill="none" xmlns="http://www.w3.org/2000/svg">
<path d="M11.9043 12.0932C11.9043 12.7461 11.6839 13.293 11.243 13.7339C10.8022 14.1747 10.2553 14.3951 9.6024 14.3951C8.84905 14.3951 8.19336 14.1161 7.63532 13.5581L1.13142 7.06255C0.500837 6.42081 0.185547 5.66467 0.185547 4.79414C0.185547 3.90686 0.492466 3.15351 1.10631 2.53409C1.72015 1.91467 2.4707 1.60496 3.35798 1.60496C4.23968 1.60496 5.00139 1.92025 5.64314 2.55083L10.7073 7.62338C10.7631 7.67918 10.791 7.74057 10.791 7.80753C10.791 7.89682 10.7059 8.02656 10.5357 8.19676C10.3655 8.36696 10.2358 8.45206 10.1465 8.45206C10.0739 8.45206 10.0098 8.42416 9.95396 8.36836L4.88142 3.28744C4.44057 2.85775 3.93555 2.64291 3.36635 2.64291C2.77483 2.64291 2.27539 2.85217 1.86802 3.2707C1.46066 3.68923 1.25698 4.19425 1.25698 4.78577C1.25698 5.3717 1.46903 5.87673 1.89314 6.30083L8.38867 12.8047C8.74023 13.1563 9.14481 13.3321 9.6024 13.3321C9.95954 13.3321 10.2553 13.2149 10.4897 12.9805C10.7241 12.7461 10.8412 12.4504 10.8412 12.0932C10.8412 11.6357 10.6655 11.2311 10.3139 10.8795L5.45061 6.01624C5.30552 5.88231 5.13811 5.81534 4.94838 5.81534C4.78655 5.81534 4.65262 5.86836 4.5466 5.97438C4.44057 6.08041 4.38756 6.21434 4.38756 6.37617C4.38756 6.55474 4.45731 6.71936 4.59682 6.87003L8.02874 10.3019C8.08454 10.3578 8.11244 10.4191 8.11244 10.4861C8.11244 10.5754 8.02595 10.7065 7.85296 10.8795C7.67997 11.0525 7.54883 11.139 7.45954 11.139C7.39258 11.139 7.33119 11.1111 7.27539 11.0553L3.84347 7.62338C3.49191 7.28298 3.31613 6.86724 3.31613 6.37617C3.31613 5.91858 3.47517 5.53074 3.79325 5.21266C4.11133 4.89458 4.49916 4.73554 4.95675 4.73554C5.44782 4.73554 5.86356 4.91132 6.20396 5.26289L11.0672 10.1262C11.6253 10.673 11.9043 11.3287 11.9043 12.0932Z" fill="white"/>
</svg>
