<svg width="30" height="28" viewBox="0 0 30 28" fill="none" xmlns="http://www.w3.org/2000/svg">
<path d="M27.5015 0.872803H2.49872C1.12088 0.872803 0 1.99376 0 3.3716V19.6671C0 21.045 1.12088 22.1659 2.49872 22.1659H10.5547L9.02564 25.5376C8.86777 25.8858 8.89747 26.2903 9.10462 26.6116C9.31177 26.933 9.66787 27.1271 10.0502 27.1271H19.9499C19.9504 27.1271 19.951 27.1271 19.9514 27.1271C20.5728 27.1271 21.0764 26.6235 21.0764 26.0021C21.0764 25.8151 21.0311 25.6385 20.95 25.4834L19.4453 22.1659H27.5013C28.8791 22.1659 30 21.045 30 19.6671V3.3716C30.0002 1.99376 28.8793 0.872803 27.5015 0.872803ZM27.7502 19.6672C27.7502 19.8044 27.6386 19.9159 27.5015 19.9159H2.49872C2.36162 19.9159 2.25002 19.8044 2.25002 19.6672V3.3716C2.25002 3.23442 2.36162 3.12282 2.49872 3.12282H27.5014C27.6385 3.12282 27.7501 3.23442 27.7501 3.3716L27.7502 19.6672Z" fill="white"/>
<path d="M18.4649 6.2326C18.3857 6.1534 18.2459 6.1651 18.1525 6.2584L16.932 7.47874C16.8385 7.57226 16.827 7.71244 16.9059 7.79157L18.6386 9.5243C18.678 9.56375 18.7332 9.58063 18.7896 9.5759C18.8463 9.57118 18.9044 9.54493 18.9514 9.49805L20.1717 8.27764C20.265 8.18427 20.2767 8.04432 20.1974 7.96519L18.4649 6.2326Z" fill="white"/>
<path d="M10.9752 13.8188C10.9239 13.7675 10.8441 13.7526 10.7659 13.7796C10.6877 13.8065 10.6232 13.8715 10.5966 13.9499L9.76277 16.42C9.73629 16.4977 9.75167 16.5766 9.80267 16.6276C9.84107 16.6663 9.89567 16.6845 9.95349 16.6795C9.97209 16.678 9.99122 16.6741 10.0102 16.6675L12.4803 15.8335C12.5586 15.807 12.6237 15.7424 12.6505 15.6643C12.6777 15.5862 12.6627 15.5063 12.6114 15.4549L10.9752 13.8188Z" fill="white"/>
<path d="M17.2128 12.6672C17.3216 12.6175 17.401 12.5198 17.4272 12.4033C17.4535 12.2866 17.4237 12.1644 17.3469 12.0729C17.2029 11.9017 17.0522 11.7276 16.8971 11.5523L18.253 10.1965C18.2977 10.1518 18.3259 10.0934 18.3304 10.0348C18.3353 9.97633 18.3166 9.92188 18.2788 9.884L16.5459 8.15141C16.4667 8.07206 16.3269 8.08369 16.2335 8.17721L14.9112 9.4997C14.0244 8.65902 13.1338 7.90901 12.3488 7.34478C11.7962 6.94758 10.7851 6.27985 10.2222 6.2713C10.1194 6.2695 10.0201 6.3097 9.9471 6.38222C9.8739 6.45467 9.83317 6.5536 9.834 6.6565C9.83692 7.04005 10.1736 7.73208 10.7819 8.60479C11.3609 9.43542 12.1564 10.39 13.0639 11.347L11.3389 13.0722C11.2453 13.1657 11.2337 13.3055 11.3129 13.3847L13.0457 15.1172C13.085 15.1571 13.1397 15.1739 13.1965 15.1691C13.2529 15.1643 13.3115 15.138 13.3581 15.0914L15.1166 13.3329C15.2701 13.4687 15.4224 13.6007 15.5725 13.728C15.6422 13.787 15.7298 13.8187 15.8197 13.8187C15.84 13.8187 15.8604 13.817 15.8808 13.8138C15.9912 13.7959 16.0882 13.7306 16.1463 13.6351C16.2489 13.4665 16.3825 13.2992 16.5438 13.1381C16.746 12.9355 16.9713 12.7771 17.2128 12.6672Z" fill="white"/>
<path d="M18.1719 12.9872C17.7266 12.9872 17.3015 13.177 16.9422 13.5362C16.5111 13.9673 16.3229 14.4195 16.3979 14.844C16.4724 15.2644 16.8064 15.6411 17.3144 15.8769C17.7515 16.0799 18.1498 16.1428 18.501 16.1984C18.8709 16.2568 19.2199 16.3121 19.5305 16.5228C19.5947 16.5667 19.6699 16.5889 19.7453 16.5889C19.7982 16.5889 19.8514 16.578 19.9012 16.5556C20.0222 16.5017 20.1067 16.3888 20.1245 16.2574C20.2576 15.2643 20.0671 14.3724 19.5881 13.7466C19.2184 13.264 18.7022 12.9872 18.1719 12.9872Z" fill="white"/>
</svg>
