<?xml version="1.0" encoding="utf-8"?>
<!-- Generator: Adobe Illustrator 25.4.1, SVG Export Plug-In . SVG Version: 6.00 Build 0)  -->
<svg version="1.1" id="Layer_1" xmlns="http://www.w3.org/2000/svg" xmlns:xlink="http://www.w3.org/1999/xlink" x="0px" y="0px"
	 viewBox="0 0 2000 2000" style="enable-background:new 0 0 2000 2000;" xml:space="preserve">
<style type="text/css">
	.st0{fill:#EAE5F2;}
	.st1{fill:#BED1EC;}
	.st2{fill:#168B9A;}
	.st3{fill:#F3F3F3;}
	.st4{fill:#BDBADD;}
	.st5{fill:#EAEFF8;}
	.st6{fill:#2CC0D5;}
	.st7{fill:#FFFFFF;}
	.st8{fill-rule:evenodd;clip-rule:evenodd;fill:#2CC0D5;}
	.st9{fill-rule:evenodd;clip-rule:evenodd;fill:#FCB644;}
	.st10{fill:#F1562C;}
	.st11{fill:#C1282D;}
	.st12{fill:#FAED24;}
	.st13{fill:#75C26F;}
	.st14{fill:#FAA71A;}
	.st15{fill:#E1E6F4;}
	.st16{fill:#E89F8B;}
	.st17{fill:#231F20;}
	.st18{fill:#FAC6B6;}
	.st19{fill:#F9E17C;}
	.st20{fill:#D73227;}
	.st21{fill:#FBC4B7;}
	.st22{fill:#BAE4F0;}
</style>
<g>
	<ellipse class="st0" cx="380.8" cy="1702.4" rx="284.9" ry="27.7"/>
	<ellipse class="st0" cx="1684.5" cy="1674.7" rx="219.6" ry="27.7"/>
	<path class="st0" d="M1453,1441.3h344.2c0,0,67.3-75.2,11.9-130.6c-38.9-38.9-79.1-23.7-102.9-51.4c-23.7-27.7,0-106.8-98.9-98.9
		c-98.9,7.9-47.5,138.5-83.1,150.4C1488.7,1322.6,1385.8,1350.3,1453,1441.3z"/>
	<path class="st1" d="M1049.5,280.7h-75.2c-47.4,0-86.5,36.7-90.6,83.1h-6.3c-27.2,0-49.5,22.3-49.5,49.5
		c0,27.2,22.3,49.5,49.5,49.5h96.9H996h53.4c50.1,0,91-41,91-91v0C1140.5,321.6,1099.5,280.7,1049.5,280.7z"/>
	<g>
		<g>
			<g>
				<path class="st2" d="M277.1,1396.1c0,16.6,13.6,30.2,30.2,30.2h944.2c16.6,0,30.2-13.6,30.2-30.2V807.6
					c0-16.6-13.6-30.2-30.2-30.2H307.2c-16.6,0-30.2,13.6-30.2,30.2V1396.1z"/>
			</g>
			<g>
				<rect x="325.1" y="827.1" class="st3" width="908.4" height="549.5"/>
			</g>
			<g>
				<path class="st4" d="M296.3,1425.9l-111.1,101H1370l-131-99C1239,1427.9,577.4,1425.9,296.3,1425.9z"/>
			</g>
			<g>
				<path class="st5" d="M1199.8,1439.8l94.3,66.2H273.8l82.5-68.8C356.3,1437.2,1190.8,1439.8,1199.8,1439.8z"/>
			</g>
			<g>
				<rect x="185.3" y="1526.8" class="st2" width="1184.7" height="31.4"/>
			</g>
			<g>
				<rect x="325.1" y="827.1" class="st6" width="908.4" height="52.6"/>
			</g>
			<g>
				<rect x="377.2" y="902.4" class="st1" width="385.5" height="195"/>
			</g>
			<g>
				<rect x="406.2" y="936.5" class="st7" width="111.3" height="111.3"/>
			</g>
			<g>
				<g>
					<rect x="510.6" y="1199.4" class="st8" width="340.4" height="123.2"/>
				</g>
				<g>
					<g id="User_12_">
						<g>
							<rect x="533.2" y="1227.5" class="st7" width="254.5" height="19.7"/>
						</g>
					</g>
				</g>
				<g>
					<g id="User_13_">
						<g>
							<rect x="533.2" y="1265" class="st7" width="196.9" height="19.7"/>
						</g>
					</g>
				</g>
				<g>
					
						<rect x="390.7" y="1199.4" transform="matrix(-1 -1.224647e-16 1.224647e-16 -1 902.6002 2522.0481)" class="st9" width="121.3" height="123.2"/>
				</g>
				<g>
					<g>
						<path class="st7" d="M415.9,1242.2c2-2,5.3-2,7.3,0l30.7,27.2l30.7-27.2c2-2,5.3-2,7.3,0c2,2,2,5.3,0,7.3l-34.3,30.3
							c-1,1-2.4,1.5-3.7,1.5c-1.3,0-2.7-0.5-3.7-1.5l-34.3-30.3C413.9,1247.5,413.9,1244.2,415.9,1242.2z"/>
					</g>
				</g>
			</g>
			<g>
				<g>
					<g id="Schloss_9_">
						<g>
							<rect x="579.3" y="1108.1" class="st6" width="263.8" height="58"/>
						</g>
					</g>
				</g>
				<g>
					<g id="Schloss_1_">
						<g>
							<rect x="579.3" y="1036.3" class="st6" width="263.8" height="58"/>
						</g>
					</g>
				</g>
				<g>
					<g>
						<g>
							
								<rect x="843.1" y="1036.9" transform="matrix(-1 -1.224647e-16 1.224647e-16 -1 1744.2178 2131.8601)" class="st7" width="58" height="58"/>
						</g>
					</g>
					<g>
						<g>
							<g>
								<path class="st10" d="M885.7,1074.1c0.6,0.6,0.6,1.6,0,2.2l-5.2,5.2c-0.6,0.6-1.6,0.6-2.2,0l-6.9-6.9l-6.9,6.9
									c-0.6,0.6-1.6,0.6-2.2,0l-5.2-5.2c-0.6-0.6-0.6-1.6,0-2.2l6.9-6.9l-6.9-6.9c-0.6-0.6-0.6-1.6,0-2.2l5.2-5.2
									c0.6-0.6,1.6-0.6,2.2,0l6.9,6.9l6.9-6.9c0.6-0.6,1.6-0.6,2.2,0l5.2,5.2c0.6,0.6,0.6,1.6,0,2.2l-6.9,6.9L885.7,1074.1z
									 M885.7,1074.1"/>
							</g>
						</g>
					</g>
				</g>
				<g>
					<g>
						<g>
							
								<rect x="843.1" y="1108.1" transform="matrix(-1 -1.224647e-16 1.224647e-16 -1 1744.2178 2274.311)" class="st7" width="58" height="58"/>
						</g>
					</g>
					<g>
						<g>
							<path class="st6" d="M890.4,1128.4l-4.2-4.3c-0.5-0.5-1.3-0.5-1.8,0l-17.5,17.9l-7.4-7.6c-0.5-0.5-1.3-0.5-1.8,0l-4.2,4.3
								c-0.5,0.5-0.5,1.3,0,1.8l12.5,12.9c0.2,0.3,0.6,0.4,0.9,0.4c0.3,0,0.7-0.1,0.9-0.4l22.6-23.2c0.2-0.2,0.4-0.6,0.4-0.9
								C890.8,1129,890.7,1128.7,890.4,1128.4L890.4,1128.4z M890.4,1128.4"/>
						</g>
					</g>
				</g>
			</g>
			<g>
				<g>
					<path class="st11" d="M374.6,851.7c0,7.8-6.3,14-14,14c-7.8,0-14-6.3-14-14s6.3-14,14-14C368.3,837.7,374.6,844,374.6,851.7z"
						/>
				</g>
				<g>
					<path class="st12" d="M419.1,851.7c0,7.8-6.3,14-14,14c-7.8,0-14-6.3-14-14s6.3-14,14-14C412.8,837.7,419.1,844,419.1,851.7z"
						/>
				</g>
				<g>
					<path class="st13" d="M463.6,851.7c0,7.8-6.3,14-14,14c-7.8,0-14-6.3-14-14s6.3-14,14-14C457.3,837.7,463.6,844,463.6,851.7z"
						/>
				</g>
			</g>
		</g>
		<rect x="914.7" y="1067.2" class="st7" width="278.9" height="267.1"/>
		<g>
			<g>
				<g>
					<path class="st14" d="M948.2,1195.8c0,64.4,52.4,116.8,116.8,116.8c64.4,0,116.8-52.4,116.8-116.8
						c0-64.4-52.4-116.8-116.8-116.8C1000.6,1079.1,948.2,1131.4,948.2,1195.8z M964.7,1195.8c0-55.3,45-100.3,100.3-100.3
						c55.3,0,100.3,45,100.3,100.3c0,55.3-45,100.3-100.3,100.3C1009.7,1296.2,964.7,1251.1,964.7,1195.8z"/>
				</g>
				<g>
					<path class="st14" d="M1037,1143.4v106.2c0,3.3,2,6.3,5.1,7.6c3.1,1.3,6.6,0.6,9-1.8l53.1-53.1c1.6-1.6,2.4-3.6,2.4-5.8
						c0-2.2-0.9-4.3-2.4-5.8l-53.1-53.1c-1.6-1.6-3.7-2.4-5.8-2.4c-1.1,0-2.2,0.2-3.2,0.6C1039,1137.1,1037,1140.1,1037,1143.4z"/>
				</g>
			</g>
		</g>
	</g>
	<g>
		<line class="st2" x1="1520.3" y1="1235.6" x2="1424.1" y2="1331.7"/>
		<path class="st2" d="M1424.1,1337.7c-1.5,0-3-0.6-4.2-1.7c-2.3-2.3-2.3-6.1,0-8.4l96.2-96.2c2.3-2.3,6.1-2.3,8.4,0s2.3,6.1,0,8.4
			l-96.2,96.2C1427.2,1337.1,1425.7,1337.7,1424.1,1337.7z"/>
	</g>
	<g>
		<g>
			<line class="st14" x1="1441.2" y1="1251.4" x2="1345" y2="1347.5"/>
			<path class="st14" d="M1345,1353.5c-1.5,0-3-0.6-4.2-1.7c-2.3-2.3-2.3-6.1,0-8.4l96.2-96.2c2.3-2.3,6.1-2.3,8.4,0
				c2.3,2.3,2.3,6.1,0,8.4l-96.2,96.2C1348.1,1352.9,1346.5,1353.5,1345,1353.5z"/>
		</g>
	</g>
	<g>
		<g>
			<path class="st14" d="M146.3,1079.3c-2.3,0-4.6-0.9-6.3-2.6c-3.5-3.5-3.5-9.1,0-12.6l8.4-8.4c3.5-3.5,9.1-3.5,12.6,0
				c3.5,3.5,3.5,9.1,0,12.6l-8.4,8.4C150.9,1078.5,148.6,1079.3,146.3,1079.3z M184.1,1041.5c-2.3,0-4.6-0.9-6.3-2.6
				c-3.5-3.5-3.5-9.1,0-12.6l8.4-8.4c3.5-3.5,9.1-3.5,12.6,0c3.5,3.5,3.5,9.1,0,12.6l-8.4,8.4
				C188.7,1040.6,186.4,1041.5,184.1,1041.5z M222,1003.6c-2.3,0-4.6-0.9-6.3-2.6c-3.5-3.5-3.5-9.1,0-12.6l8.4-8.4
				c3.5-3.5,9.1-3.5,12.6,0c3.5,3.5,3.5,9.1,0,12.6l-8.4,8.4C226.6,1002.8,224.3,1003.6,222,1003.6z"/>
		</g>
	</g>
	<g>
		<line class="st2" x1="418.2" y1="504.2" x2="514.4" y2="408"/>
		<path class="st2" d="M418.2,510.2c-1.5,0-3-0.6-4.2-1.7c-2.3-2.3-2.3-6.1,0-8.4l96.2-96.2c2.3-2.3,6.1-2.3,8.4,0
			c2.3,2.3,2.3,6.1,0,8.4l-96.2,96.2C421.2,509.6,419.7,510.2,418.2,510.2z"/>
	</g>
	<g>
		<g>
			<path class="st14" d="M497.8,509.5c-2.3,0-4.6-0.9-6.3-2.6c-3.5-3.5-3.5-9.1,0-12.6l8.4-8.4c3.5-3.5,9.1-3.5,12.6,0
				c3.5,3.5,3.5,9.1,0,12.6l-8.4,8.4C502.4,508.6,500.1,509.5,497.8,509.5z M535.7,471.6c-2.3,0-4.6-0.9-6.3-2.6
				c-3.5-3.5-3.5-9.1,0-12.6l8.4-8.4c3.5-3.5,9.1-3.5,12.6,0c3.5,3.5,3.5,9.1,0,12.6L542,469C540.2,470.7,537.9,471.6,535.7,471.6z
				 M573.5,433.8c-2.3,0-4.6-0.9-6.3-2.6c-3.5-3.5-3.5-9.1,0-12.6l8.4-8.4c3.5-3.5,9.1-3.5,12.6,0c3.5,3.5,3.5,9.1,0,12.6l-8.4,8.4
				C578.1,432.9,575.8,433.8,573.5,433.8z M611.4,395.9c-2.3,0-4.6-0.9-6.3-2.6c-3.5-3.5-3.5-9.1,0-12.6l8.4-8.4
				c3.5-3.5,9.1-3.5,12.6,0c3.5,3.5,3.5,9.1,0,12.6l-8.4,8.4C615.9,395,613.7,395.9,611.4,395.9z M649.2,358c-2.3,0-4.6-0.9-6.3-2.6
				c-3.5-3.5-3.5-9.1,0-12.6l8.4-8.4c3.5-3.5,9.1-3.5,12.6,0c3.5,3.5,3.5,9.1,0,12.6l-8.4,8.4C653.8,357.2,651.5,358,649.2,358z"/>
		</g>
	</g>
	<g>
		<g>
			<path class="st2" d="M926.9,650.2l-11.9-0.7l1.9-29.6l-29.2,2.2l-0.9-11.9l36-2.7c1.8-0.2,3.4,0.5,4.6,1.7
				c1.2,1.2,1.9,2.9,1.8,4.6L926.9,650.2z"/>
		</g>
		<g>
			
				<rect x="814.8" y="653.2" transform="matrix(0.7071 -0.7071 0.7071 0.7071 -208.7626 814.3359)" class="st2" width="127.8" height="11.9"/>
		</g>
	</g>
	<g>
		<g>
			<path class="st14" d="M804.4,546.9c3.9,3.9,10.3,3.9,14.3,0c3.9-3.9,3.9-10.3,0-14.3l-9.4-9.4c-3.9-3.9-10.3-3.9-14.3,0
				c-3.9,3.9-3.9,10.3,0,14.3L804.4,546.9z"/>
			<path class="st14" d="M805.3,559l-9.4,9.4c-3.9,3.9-3.9,10.3,0,14.3c3.9,3.9,10.3,3.9,14.3,0l9.4-9.4c3.9-3.9,3.9-10.3,0-14.3
				C815.6,555,809.2,555,805.3,559z"/>
			<path class="st14" d="M845.6,546.9l9.4-9.4c3.9-3.9,3.9-10.3,0-14.3c-3.9-3.9-10.3-3.9-14.3,0l-9.4,9.4c-3.9,3.9-3.9,10.3,0,14.3
				C835.2,550.9,841.6,550.9,845.6,546.9z"/>
			<path class="st14" d="M844.6,559c-3.9-3.9-10.3-3.9-14.3,0c-3.9,3.9-3.9,10.3,0,14.3l9.4,9.4c3.9,3.9,10.3,3.9,14.3,0
				c3.9-3.9,3.9-10.3,0-14.3L844.6,559z"/>
		</g>
	</g>
	<g>
		<g>
			<path class="st14" d="M1288.6,317.9c-13.2,0-24-10.8-24-24c0-13.2,10.8-24,24-24c13.2,0,24,10.8,24,24
				C1312.6,307.1,1301.8,317.9,1288.6,317.9z M1288.6,281.8c-6.7,0-12.1,5.4-12.1,12.1c0,6.7,5.4,12.1,12.1,12.1
				c6.7,0,12.1-5.4,12.1-12.1C1300.7,287.2,1295.3,281.8,1288.6,281.8z"/>
		</g>
	</g>
	<g>
		<g>
			<path class="st2" d="M1019.8,1073.9c0,24.8,18.4,47.1,43.2,47.1h463.2c24.8,0,45.8-22.2,45.8-47.1V432.7
				c0-24.8-20.9-45.4-45.8-45.4H1063c-24.8,0-43.2,20.6-43.2,45.4V1073.9z"/>
		</g>
		<g>
			<rect x="1063.3" y="441" class="st15" width="465.2" height="562.4"/>
		</g>
		<g>
			<path class="st2" d="M1264.7,1061.1c0,16.5,13.4,29.9,29.9,29.9c16.5,0,29.9-13.4,29.9-29.9c0-16.5-13.4-29.9-29.9-29.9
				C1278.1,1031.2,1264.7,1044.6,1264.7,1061.1z"/>
		</g>
		<g>
			<g>
				<path class="st14" d="M1304.7,615.4h-16.3c0,0,0,0,0,0v34.5c0,0,0,0,0,0h16.3c0,0,0,0,0,0c2.5,13.3,7.7,25.5,15,36.3
					c0,0,0,0,0,0l-11.6,11.5c0,0,0,0,0,0l24.4,24.4c0,0,0,0,0,0l11.6-11.6c0,0,0,0,0,0c10.7,7.4,23,12.6,36.3,15c0,0,0,0,0,0V742
					c0,0,0,0,0,0h17.2h17.2c0,0,0,0,0,0v-16.3c0,0,0,0,0,0c13.3-2.4,25.6-7.7,36.3-15c0,0,0,0,0,0l11.6,11.6c0,0,0,0,0,0l24.4-24.4
					c0,0,0,0,0,0l-11.6-11.5c0,0,0,0,0,0c7.4-10.7,12.6-23,15-36.3c0,0,0,0,0,0h16.3c0,0,0,0,0,0v-34.5c0,0,0,0,0,0h-16.3
					c0,0,0,0,0,0c-2.5-13.3-7.7-25.6-15-36.3c0,0,0,0,0,0l11.6-11.6c0,0,0,0,0,0l-24.4-24.4c0,0,0,0,0,0l-11.6,11.6c0,0,0,0,0,0
					c-10.7-7.4-23-12.6-36.3-15c0,0,0,0,0,0v-16.3c0,0,0,0,0,0h-17.2h-17.2c0,0,0,0,0,0v16.3c0,0,0,0,0,0
					c-13.3,2.4-25.6,7.7-36.3,15c0,0,0,0,0,0l-11.6-11.6c0,0,0,0,0,0l-24.4,24.4c0,0,0,0,0,0l11.6,11.6c0,0,0,0,0,0
					C1312.4,589.9,1307.2,602.2,1304.7,615.4C1304.8,615.4,1304.7,615.4,1304.7,615.4z M1345.7,615.2c7-22.5,28.5-37.2,52-37.2l0,0
					c35.9,0,63.7,34.6,52,72.2c-7,22.4-28.5,37.2-52,37.2l0,0C1361.8,687.4,1334,652.9,1345.7,615.2z M1398.5,605.6
					c15.8,0,28.6,12.8,28.6,28.6c0,15.8-12.8,28.6-28.6,28.6c-15.8,0-28.6-12.8-28.6-28.6C1369.8,618.4,1382.6,605.6,1398.5,605.6z"
					/>
			</g>
		</g>
		<g>
			<g>
				<path class="st7" d="M1124.3,629.2h-12.1c0,0,0,0,0,0v25.6c0,0,0,0,0,0h12.1c0,0,0,0,0,0c1.8,9.8,5.7,19,11.1,26.9c0,0,0,0,0,0
					l-8.6,8.6c0,0,0,0,0,0l18.1,18.1c0,0,0,0,0,0l8.6-8.6c0,0,0,0,0,0c7.9,5.5,17.1,9.3,26.9,11.1c0,0,0,0,0,0v12.1c0,0,0,0,0,0
					h12.8h12.8c0,0,0,0,0,0V711c0,0,0,0,0,0c9.8-1.8,19-5.7,26.9-11.1c0,0,0,0,0,0l8.6,8.6c0,0,0,0,0,0l18.1-18.1c0,0,0,0,0,0
					l-8.6-8.6c0,0,0,0,0,0c5.5-7.9,9.3-17.1,11.1-26.9c0,0,0,0,0,0h12.1c0,0,0,0,0,0v-25.6c0,0,0,0,0,0h-12.1c0,0,0,0,0,0
					c-1.8-9.8-5.7-19-11.1-26.9c0,0,0,0,0,0l8.6-8.6c0,0,0,0,0,0l-18.1-18.1c0,0,0,0,0,0l-8.6,8.6c0,0,0,0,0,0
					c-7.9-5.5-17.1-9.3-26.9-11.1c0,0,0,0,0,0v-12.1c0,0,0,0,0,0h-12.8h-12.8c0,0,0,0,0,0V573c0,0,0,0,0,0
					c-9.8,1.8-19,5.7-26.9,11.1c0,0,0,0,0,0l-8.6-8.6c0,0,0,0,0,0l-18.1,18.1c0,0,0,0,0,0l8.6,8.6c0,0,0,0,0,0
					C1130,610.2,1126.2,619.3,1124.3,629.2C1124.4,629.2,1124.3,629.2,1124.3,629.2z M1154.7,629c5.2-16.7,21.1-27.6,38.6-27.6l0,0
					c26.6,0,47.3,25.7,38.6,53.6c-5.2,16.6-21.1,27.6-38.6,27.6l0,0C1166.7,682.6,1146.1,657,1154.7,629z M1193.9,621.9
					c11.7,0,21.2,9.5,21.2,21.2c0,11.7-9.5,21.2-21.2,21.2c-11.7,0-21.2-9.5-21.2-21.2C1172.7,631.4,1182.2,621.9,1193.9,621.9z"/>
			</g>
		</g>
		<g>
			<g>
				<path class="st10" d="M1174.2,829.9l-17.4,2.7c0,0,0,0,0,0l5.7,36.7c0,0,0,0,0,0l17.4-2.7c0,0,0,0,0,0
					c4.8,13.7,12.3,26,21.9,36.1c0,0,0,0,0,0l-10.4,14.2c0,0,0,0,0,0l30,22c0,0,0,0,0,0l10.4-14.2c0,0,0,0,0,0
					c12.6,6.1,26.5,9.6,41.1,10c0,0,0,0,0,0l2.7,17.4c0,0,0,0,0,0l18.4-2.8l18.4-2.8c0,0,0,0,0,0l-2.7-17.4c0,0,0,0,0,0
					c13.7-4.8,26-12.3,36.1-21.9c0,0,0,0,0,0l14.2,10.4c0,0,0,0,0,0l22-30c0,0,0,0,0,0l-14.2-10.4c0,0,0,0,0,0
					c6.1-12.6,9.6-26.5,10-41.1c0,0,0,0,0,0l17.4-2.7c0,0,0,0,0,0l-5.7-36.7c0,0,0,0,0,0l-17.4,2.7c0,0,0,0,0,0
					c-4.8-13.7-12.3-26-21.9-36.1c0,0,0,0,0,0l10.4-14.2c0,0,0,0,0,0l-30-22c0,0,0,0,0,0l-10.4,14.2c0,0,0,0,0,0
					c-12.6-6.1-26.5-9.6-41.1-10c0,0,0,0,0,0l-2.7-17.4c0,0,0,0,0,0l-18.4,2.8l-18.4,2.8c0,0,0,0,0,0l2.7,17.4c0,0,0,0,0,0
					c-13.7,4.8-26,12.3-36.1,21.9c0,0,0,0,0,0l-14.2-10.4c0,0,0,0,0,0l-22,30c0,0,0,0,0,0l14.2,10.4c0,0,0,0,0,0
					C1178.2,801.4,1174.7,815.4,1174.2,829.9C1174.2,829.9,1174.2,829.9,1174.2,829.9z M1217.8,822.9c3.7-25.1,24.2-44.3,49.3-48.2
					l0,0c38.2-5.9,73.5,26.4,67.2,68.4c-3.8,25-24.2,44.3-49.3,48.1l0,0C1246.8,897.2,1211.5,865,1217.8,822.9z M1272.4,804.1
					c16.8-2.6,32.6,9,35.2,25.8c2.6,16.8-9,32.6-25.8,35.2c-16.8,2.6-32.6-9-35.2-25.8C1244,822.4,1255.6,806.7,1272.4,804.1z"/>
			</g>
		</g>
	</g>
	<g>
		<path class="st16" d="M1585.9,1674.3c3-2.2,29.1-9,37.5-16.8c8.1-7.5,8.4-19.2,8.4-19.2l-29.1-227.5l8.2-66.4l105.2,16.4
			c0,0-7.5,48.5-7.5,52.2c1.5-2.2,33.7,25,41.8,49.2c9.3,28,40.5,114.6,52.2,136.8l14.3,25.7L1784,1649c0,0-30.9,10.5-28.9,7.4
			c2-3.2,24-18.7,29.1-29c3-6.1,2.7-12.6,2-16.7l-109-184.7l-9.5-64.4h-17.2l-13.9,54.1c0,0,17.6,57.7,18.3,84.6
			c0.7,26.9-4.4,135.9-4.4,135.9l4.5,30.6l-39.3,11C1615.5,1677.6,1582.9,1676.5,1585.9,1674.3z"/>
		<path class="st17" d="M1824.4,1639c0,0-3.6-14.2-6.3-19.7c-2.7-5.6-9-10.4-9-10.4s-12.2,6.3-12.7,13.8
			c-0.7,9.3-12.1,15.2-26.1,20.5c-12.9,4.9-20.7,14.7-20.1,18c0.7,3.3,51.6-15.4,51.6-15.4l9.7-16.7l4.6,12L1824.4,1639z"/>
		<path class="st17" d="M1656.9,1682.7c0,0,1.7-14.5,1.1-20.7c-0.6-6.2-4.7-12.9-4.7-12.9s-13.6,1.6-16.8,8.4
			c-4,8.4-16.7,9.9-31.7,9.9c-13.8,0-24.6,6.4-25.2,9.7c-0.6,3.4,53.7,3.9,53.7,3.9l15-12.2v12.9L1656.9,1682.7z"/>
		<path class="st2" d="M1674.3,909.5c0,0-11.2-15.7-10.4-38.8c0.7-23.1,64.9-36.6,86.5-14.9c21.6,21.6,14.2,46.2,26.1,57.4
			c11.9,11.2,47,9.7,42.5,45.5c-4.5,35.8-30.6,40.3-17.9,57.4c12.7,17.2,34.3,42.3,6.6,77c-27.7,34.6-95-4-95-4l-13.1-163.3
			L1674.3,909.5z"/>
		<polygon class="st16" points="1720.5,934.1 1730.2,966.9 1700.4,972.9 1699.6,946.8 		"/>
		<path class="st16" d="M1645.9,1040c0,0-18.6,8.2-40.3,9c-21.6,0.7-34.3-6-34.3-6v36.6c0,0,38,14.9,71.6-4.5
			C1648.9,1073.6,1645.9,1040,1645.9,1040z"/>
		<path class="st18" d="M1715.3,917.7c0,0,10.4-8.2,14.2,1.5c3.7,9.7-9,14.9-9,14.9s-14.2,26.9-42.5,26.9
			c-23.1-38-5.2-78.3-5.2-78.3s11.6,10.5,19.7,18.6C1702.3,911.1,1716.8,908,1715.3,917.7z"/>
		<path class="st14" d="M1655.6,1004.2c8.5-10.5,45.5-36.6,45.5-36.6l29.1-0.7c0,0,23.9,23.9,23.9,54.5c0,30.6-34.3,76.1-39.5,93.2
			c-5.2,17.2-3.7,29.8-3.7,29.8s28.3,67.9,27.6,103.7c-0.7,35.8-17.2,116.4-17.2,116.4s-86.5,9-121.6-8.2
			c4.5-0.7,28.3-194,34.3-213.3c6-19.4,6-70.9,6-82.8S1630.2,1035.5,1655.6,1004.2z"/>
		<path class="st18" d="M1707.8,1005.7c8.2-7.5,46.2-1.5,23.9,37.3c-22.4,38.8-82.8,89.5-82.8,89.5s-26.1,17.9-67.1,17.9
			s-65.6-15.7-65.6-15.7s-10.4,6-27.6,2.2c-17.2-3.7-20.1-15.7-20.1-15.7l31.3,0.7c0,0-9-11.9-3-12.7c6-0.7,18.6,11.9,18.6,11.9
			s87.3-6,103.7-13.4C1635.5,1100.4,1699.6,1013.2,1707.8,1005.7z"/>
		<path class="st19" d="M1652.4,1190.1l37.6-12.9c0,0,16.8,46.5-7.9,53.4C1657.3,1237.5,1652.4,1190.1,1652.4,1190.1z"/>
	</g>
	<g>
		<polygon class="st16" points="196.6,1622 182.1,1661.2 211.1,1661.2 222.8,1632.1 		"/>
		<polygon class="st16" points="445.9,1648.8 447.3,1680.8 472,1679.4 472,1648.8 		"/>
		<path class="st2" d="M231.5,1715l-69.8-48c0,0,1.5-10.2,16-20.3c8.7-4.4,33.4,14.5,33.4,14.5S243.1,1685.9,231.5,1715z"/>
		<path class="st2" d="M438.6,1705.5c0,0-2.9-21.8,8.7-24.7c11.6-2.9,26.8-2.1,46.5-1.5c43.6,1.5,55.2,26.2,55.2,26.2H438.6z"/>
		<path class="st2" d="M277.9,1241.5c0,0-16.6,30.9-16.6,62.9c0,32,17.4,135.2,17.4,135.2s-37.8,49.4-48,71.2
			c-10.2,21.8-47.2,117-47.2,117l40.7,18.9l118.5-188.2l-5.8-145.3h16l77,139.5c0,0-14.5,34.9-16,66.9
			c-1.5,32,24.7,142.4,24.7,142.4l43.6-2.9v-215.1c0,0-32-114.8-100.3-197.7C360.1,1240.4,277.9,1241.5,277.9,1241.5z"/>
		<polygon class="st10" points="633.4,910.5 666.8,903.2 672.6,946.8 642.1,951.2 		"/>
		<polygon class="st20" points="499.6,926.5 509.8,970.1 534.5,965.7 557.8,1051.5 576.7,1048.6 559.2,959.9 659.5,984.6 640.6,848 
			554.9,910.5 		"/>
		<path class="st10" d="M373.2,1023.9c0,0-88.7-8.7-122.1,13.1c-33.4,21.8-46.5,42.1-46.5,42.1l34.9,37.8l24.7-17.4l8.7,142.4
			c0,0,50.9,21.8,106.1,4.4c0,0,6.5-38,23.3-64c16-24.7,14.5-61,20.3-81.4c5.8,7.3,33.4,26.2,33.4,26.2l30.5-39.2
			C486.6,1087.8,427,1028.2,373.2,1023.9z"/>
		<path class="st16" d="M327.4,1049.6L334,989l38.9,13.1l-5.9,53.4C366.9,1055.5,349.1,1071.4,327.4,1049.6z"/>
		<path class="st21" d="M457.9,1124.8c0,0,66.4,41.5,86.8,34.3c20.3-7.3,2.9-129.4,2.9-129.4l23.3-4.4l2.9-37.8
			c0,0-36.3,0-43.6,10.2c-7.3,10.2-20.3,114.8-20.3,114.8l-24.7-24.7L457.9,1124.8z"/>
		<polygon class="st10" points="675.5,878.5 688.6,816 710.4,824.8 		"/>
		<polygon class="st10" points="687.1,958.5 717.7,1012.2 733.7,1003.5 		"/>
		<polygon class="st10" points="706,913.4 767.1,900.3 768.5,920.7 		"/>
		<path class="st2" d="M383.4,936.7c0,0,23.3-27.6,11.6-45.1c-11.6-17.4-59.6,8.7-81.4,20.3c-21.8,11.6-17.4,53.8-5.8,66.9
			c11.6,13.1,39.2,14.5,39.2,14.5L383.4,936.7z"/>
		<path class="st21" d="M334,989c0,0-13.1-11.6-13.1-23.3c0-11.6,18.9-4.4,18.9-4.4s39.2-24.7,37.8-52.3c32,16,29.1,93,20.3,110.5
			c-23.3,2.9-43.6-14.5-43.6-14.5L334,989z"/>
		<path class="st21" d="M239.5,1116.9l-34.9-37.8c0,0-45.4,81.3-45.4,103c0,21.8,17.8,87,17.8,87s7.9,31.7,31.7,31.7
			c23.7,0,2-39.6,2-39.6s9.9,13.8,17.8,4s-25.7-23.7-25.7-23.7l-13.8-61.3L239.5,1116.9z"/>
	</g>
	<path class="st1" d="M1763.5,517.6c-12.7-22.5-36.8-37.8-64.5-37.8c-40.9,0-74.1,33.2-74.1,74.1c0,1.2,0.1,2.5,0.2,3.7
		c-19.9,2.4-35.5,19.5-35.5,40.1c0,22.2,18.2,40.4,40.4,40.4h80.8c2.1,0,4.1-0.2,6-0.5c2.4,0.3,4.9,0.5,7.4,0.5h30.3
		c33.3,0,60.6-27.3,60.6-60.6C1815.2,547.2,1792.6,522,1763.5,517.6z"/>
	<g>
		<path class="st22" d="M743.3,530.4h-381c-9.8,0-17.8,8-17.8,17.8v156.8c0,9.8,8,17.8,17.8,17.8h18.3v26l53.6-26h309.1
			c9.8,0,17.8-8,17.8-17.8V548.3C761.1,538.5,753.1,530.4,743.3,530.4z"/>
		<g>
			<g>
				<g>
					<g>
						<rect x="385.2" y="560.2" class="st7" width="337.6" height="32"/>
					</g>
				</g>
			</g>
		</g>
		<g>
			<g>
				<g>
					<g>
						<rect x="385.2" y="623.5" class="st7" width="337.6" height="32"/>
					</g>
				</g>
			</g>
		</g>
	</g>
</g>
</svg>
