<svg width="170" height="119" viewBox="0 0 170 119" fill="none" xmlns="http://www.w3.org/2000/svg">
<g clip-path="url(#clip0_2_1233)">
<g clip-path="url(#clip1_2_1233)">
<path d="M26.4464 117.958C26.4464 117.958 7.92083 121.361 2.02408 108.489C-5.62667 91.791 10.0918 79.1297 22.147 81.4885C48.4156 86.6289 42.0904 29.9222 84.2481 41.4955C96.1021 44.7494 128.131 25.4179 137.064 56.415C139.187 63.7856 146.713 64.5973 157.638 69.2742C179.019 78.4275 169.244 118.112 153.966 118.268C138.688 118.424 26.4457 117.958 26.4457 117.958H26.4464Z" fill="#EBF2F9"/>
<path d="M118.316 105.743H129.226V65.0862H118.316V105.743Z" fill="#82B479"/>
<path d="M113.222 105.743H121.239V65.0862H113.222V105.743Z" fill="#A8D29F"/>
<path d="M117.365 103.225C118.353 103.225 119.154 102.424 119.154 101.436C119.154 100.447 118.353 99.646 117.365 99.646C116.376 99.646 115.575 100.447 115.575 101.436C115.575 102.424 116.376 103.225 117.365 103.225Z" fill="#82B479"/>
<path d="M134.321 105.743H145.231V65.0862H134.321V105.743Z" fill="#699DEE"/>
<path d="M129.226 105.743H137.243V65.0862H129.226V105.743Z" fill="#AFCDFB"/>
<path d="M133.37 103.225C134.358 103.225 135.159 102.424 135.159 101.436C135.159 100.447 134.358 99.646 133.37 99.646C132.381 99.646 131.58 100.447 131.58 101.436C131.58 102.424 132.381 103.225 133.37 103.225Z" fill="#699DEE"/>
<path d="M135.159 69.2236H131.58V90.5632H135.159V69.2236Z" fill="white"/>
<path d="M150.138 105.743H161.048V65.0862H150.138V105.743Z" fill="#D86713"/>
<path d="M145.043 105.743H153.06V65.0862H145.043V105.743Z" fill="#F1A34F"/>
<path d="M149.187 103.225C150.175 103.225 150.976 102.424 150.976 101.436C150.976 100.447 150.175 99.646 149.187 99.646C148.198 99.646 147.397 100.447 147.397 101.436C147.397 102.424 148.198 103.225 149.187 103.225Z" fill="#D86713"/>
<path d="M150.976 69.2236H147.397V90.5632H150.976V69.2236Z" fill="white"/>
<path d="M119.02 69.4971H115.441V90.8366H119.02V69.4971Z" fill="white"/>
<path d="M92.568 62.3898L96.4147 108.129C96.4147 108.129 96.8177 110.902 94.7555 110.907C91.3647 110.915 77.8777 110.907 77.8777 110.907C77.8777 110.907 80.4301 110.33 80.3989 109.032C80.3626 107.501 75.9028 61.9575 75.9028 61.9575L92.568 62.3904V62.3898Z" fill="#D86713"/>
<path d="M76.7833 110.078C77.4505 110.079 90.332 110.12 93.6344 110.078C95.0732 110.06 95.326 108.798 95.3381 107.982C95.3438 107.59 95.2942 107.301 95.2942 107.301L95.1942 106.112L94.9389 103.083L94.7135 100.405L94.4238 96.9655L94.18 94.0617L91.4468 61.5602L74.7816 61.1279C74.7816 61.1279 76.6597 80.1876 77.9885 94.0617C78.1368 95.6075 78.2781 97.0897 78.4087 98.4731C78.4513 98.915 78.4914 99.3466 78.5309 99.7675C78.6538 101.08 78.7665 102.285 78.8645 103.35C78.9161 103.911 78.9638 104.432 79.0071 104.91C79.1765 106.781 79.2758 107.976 79.2771 108.203C79.2777 108.335 79.2662 108.459 79.2446 108.573C78.9708 110.031 77.0328 110.079 76.7826 110.079L76.7833 110.078Z" fill="#EE9849"/>
<path d="M53.0301 37.5H133.041L123.671 75.1381L122.388 80.2925L118.024 97.8236H36.9443L53.0301 37.5Z" fill="#F1A34F"/>
<path d="M133.041 37.5L134.34 37.9329L119.75 99.1332L118.024 97.8236L133.041 37.5Z" fill="#EE9849"/>
<path d="M119.75 99.1333H39.17L36.9449 97.8237H118.024L119.75 99.1333Z" fill="#D86713"/>
<path d="M91.4532 110.095H74.0061V110.924H91.4532V110.095Z" fill="#F1A34F"/>
<path d="M78.4411 99.1328L78.5309 99.7669L94.9389 103.081L94.7135 100.405L94.6066 99.1328H78.4411Z" fill="#D86713"/>
<path opacity="0.4" d="M76.7833 110.078C77.4505 110.08 90.332 110.12 93.6344 110.078C95.0732 110.06 95.326 108.798 95.3381 107.982L79.0078 104.909C79.1771 106.78 79.2764 107.975 79.2777 108.202C79.2783 108.334 79.2669 108.458 79.2452 108.573C78.9715 110.03 77.0335 110.078 76.7833 110.078V110.078Z" fill="#D86713"/>
<path opacity="0.4" d="M83.4605 85.9728L118.024 97.8236L120.975 85.9658L83.4605 85.9728Z" fill="#D86713"/>
<path d="M53.0301 37.5H133.041L120.982 85.9658L40.048 85.981L53.0301 37.5Z" fill="#F1A34F"/>
<path d="M74.8905 86.9279C75.1216 85.7393 76.2727 84.7754 77.4619 84.7754C78.6512 84.7754 79.4273 85.7393 79.1962 86.9279C78.9651 88.1172 77.814 89.0805 76.6247 89.0805C75.4355 89.0805 74.6594 88.1166 74.8905 86.9279Z" fill="#D86713"/>
<path d="M43.3777 78.6983H118.292L126.776 44.9012L127.426 42.3094L127.982 40.0982L129.283 34.9146H55.4475L54.0188 40.0982L53.4096 42.3094L52.6952 44.9012L43.3777 78.6983Z" fill="#E9F3FE"/>
<path d="M55.4475 34.9146H129.283L127.982 40.0982H54.0188L55.4475 34.9146Z" fill="#A8D29F"/>
<path d="M125.742 36.6094C126.1 36.6094 126.317 36.8997 126.228 37.2575C126.139 37.6153 125.777 37.9056 125.418 37.9056C125.06 37.9056 124.843 37.6153 124.932 37.2575C125.021 36.8997 125.383 36.6094 125.742 36.6094Z" fill="#E9F3FE"/>
<path d="M123.589 36.6094C123.946 36.6094 124.164 36.8997 124.075 37.2575C123.986 37.6153 123.624 37.9056 123.265 37.9056C122.907 37.9056 122.69 37.6153 122.779 37.2575C122.868 36.8997 123.23 36.6094 123.589 36.6094Z" fill="#E9F3FE"/>
<path d="M120.461 37.2575C120.55 36.8997 120.912 36.6094 121.271 36.6094C121.629 36.6094 121.846 36.8997 121.757 37.2575C121.668 37.6153 121.306 37.9056 120.947 37.9056C120.589 37.9056 120.372 37.6153 120.461 37.2575Z" fill="#E9F3FE"/>
<path d="M16.333 101.083C16.333 101.083 15.3793 101.967 15.5652 102.595C15.7511 103.223 16.6119 103.642 16.7284 104.409C16.8449 105.177 17.3097 105.595 17.7286 105.595H19.7245C19.7245 105.595 20.0327 105.056 19.2884 104.893C18.5441 104.73 18.2634 103.828 18.3098 102.99C18.3563 102.153 18.2398 101.036 18.2398 101.036L16.6584 100.665L16.333 101.083V101.083Z" fill="#233862"/>
<path d="M33.6222 105.594H28.322C28.2761 105.584 28.2411 105.574 28.2188 105.562C27.8655 105.386 27.9756 104.035 28.0183 103.616C28.0266 103.538 28.0323 103.492 28.0323 103.492C28.0323 103.492 29.8932 102.004 30.1492 103.144C30.1568 103.179 30.1664 103.214 30.1766 103.249C30.4981 104.315 31.9427 104.8 32.7773 104.935C33.4133 105.038 33.5789 105.408 33.6222 105.594Z" fill="#233862"/>
<path d="M32.5558 75.0788C32.5558 75.0788 32.2731 78.6046 31.9407 82.8429C31.4894 88.6002 30.9463 95.6722 30.8928 97.0117C30.7999 99.3381 30.4274 103.059 30.4274 103.059C30.4274 103.059 29.5444 103.944 27.7757 103.571C27.7757 103.571 26.2 98.2583 25.7499 92.6379C25.7429 92.5456 25.7359 92.4533 25.7289 92.3603C25.3099 86.6386 24.6593 74.5898 24.6593 74.5898L32.5551 75.0782L32.5558 75.0788Z" fill="#699DEE"/>
<path d="M32.5558 75.0788C32.5558 75.0788 32.2731 78.6046 31.9407 82.8429L25.7499 92.6379C25.7429 92.5456 25.7359 92.4533 25.7289 92.3603C25.3099 86.6386 24.6593 74.5898 24.6593 74.5898L32.5551 75.0782L32.5558 75.0788Z" fill="#4A75CB"/>
<path d="M31.2652 75.4981C31.2652 75.4981 26.1713 88.2676 22.8225 94.2681C19.473 100.269 18.4264 101.944 18.4264 101.944C18.4264 101.944 16.5075 101.176 16.333 100.653C16.333 100.653 17.614 89.0679 19.8569 86.2437C21.1245 84.6482 22.613 79.8592 22.6831 78.1842C22.7531 76.5098 23.1364 73.1953 23.1364 73.1953L31.2652 75.4981Z" fill="#699DEE"/>
<path d="M36.4165 71.9727L36.7074 72.5533C36.7074 72.5533 38.1877 72.7602 37.7802 74.3035C37.7802 74.3035 37.5605 74.9382 37.1524 74.7377C36.7443 74.5365 36.9455 74.5537 36.3598 74.2831C35.7747 74.0125 35.436 73.493 35.5672 73.0168L35.4736 72.5119L36.4165 71.9733V71.9727Z" fill="#FFB27D"/>
<path d="M28.653 55.7878C28.8797 54.4508 28.8867 53.6582 28.8867 53.6582L26.3025 51.5757C26.3986 54.4394 24.5631 55.8165 24.5631 55.8165C24.5631 55.8165 28.0068 57.5119 29.9977 56.8842C29.9977 56.8842 29.5074 56.2577 28.653 55.7885V55.7878Z" fill="#FFB27D"/>
<path d="M29.4953 53.61C29.4953 53.61 26.2076 54.1562 25.8988 52.1036C25.5901 50.0511 24.9579 48.7389 27.0442 48.3034C29.1305 47.8679 29.657 48.5899 29.9263 49.2495C30.1963 49.9097 30.3427 53.4152 29.4953 53.61Z" fill="#FFB27D"/>
<path d="M25.9205 52.2452C25.9205 52.2452 25.9867 49.4955 28.9828 49.0543C31.0348 48.7519 29.792 47.0373 29.5577 46.7661C29.5577 46.7661 27.989 47.0653 26.384 47.4181C23.0141 48.1579 25.5652 51.8371 25.9211 52.2458L25.9205 52.2452Z" fill="#163560"/>
<path d="M36.0714 72.7794C36.5107 72.3286 36.8373 71.741 36.8373 71.741C36.8373 71.741 33.102 67.0997 32.7983 66.6184C32.4946 66.1371 30.2262 58.4169 30.2262 58.4169L24.4893 57.2544C24.4893 57.2544 29.2782 67.1341 30.0715 68.3387C31.3824 70.3289 35.3042 73.2912 35.3042 73.2912C35.3042 73.2912 35.727 73.1327 36.072 72.7787L36.0714 72.7794Z" fill="#82B479"/>
<path d="M32.7754 75.3727C32.7156 75.4223 32.6462 75.4523 32.5659 75.4523C31.8185 75.4421 29.6386 75.8572 27.7942 75.6681C26.2395 75.5191 24.863 75.0582 23.3853 74.396C23.1892 74.3082 22.7372 74.0669 22.7474 73.8479C22.7537 73.6079 22.7779 73.2596 22.8079 72.8209C22.9123 71.2955 23.095 68.6718 22.9167 65.6445C22.8849 65.0811 22.8677 64.5221 22.8658 63.9714C22.8505 59.8687 23.6502 56.2404 25.2845 55.0193C25.4239 54.9193 26.2955 55.3586 27.083 55.747C27.8107 56.1061 28.3194 56.0978 29.007 55.9584L29.9136 56.6141C30.7508 57.3915 31.6683 58.4483 32.0668 60.0527C32.4061 61.4184 32.6048 63.8803 32.7149 66.4321C32.7646 67.5882 32.8047 68.7546 32.8149 69.8611V69.9006C32.8244 70.0101 32.8244 70.1298 32.8244 70.2399C32.8645 73.0807 32.8244 75.3332 32.7748 75.3733L32.7754 75.3727Z" fill="#A8D29F"/>
<path d="M22.8085 72.8204C22.9129 71.2949 23.0956 68.6712 22.9174 65.6439C22.8855 65.0805 22.8683 64.5215 22.8664 63.9708C23.547 62.3187 24.1041 61.1211 24.1041 61.1211H25.8205C25.8205 61.1211 27.0786 69.716 22.8085 72.8204Z" fill="#82B479"/>
<path d="M19.4692 73.3543L19.1432 73.9158C19.1432 73.9158 19.7818 75.2674 18.2672 75.7723C18.2672 75.7723 17.6159 75.9366 17.5599 75.4852C17.5038 75.0338 17.6 75.2114 17.5057 74.5735C17.4109 73.9355 17.6605 73.3676 18.1303 73.2161L18.5015 72.8608L19.4686 73.3543H19.4692Z" fill="#FFB27D"/>
<path d="M18.6059 73.5078C19.2241 73.6281 19.8939 73.5797 19.8939 73.5797C19.8939 73.5797 21.7287 67.9115 21.9649 67.3939C22.2011 66.8763 27.4154 60.7478 27.4154 60.7478L25.2431 55.312C25.2431 55.312 19.6035 64.732 19.0312 66.0556C18.0851 68.2432 17.7566 73.1468 17.7566 73.1468C17.7566 73.1468 18.1208 73.4135 18.6059 73.5078Z" fill="#A8D29F"/>
<path d="M82.8143 54.9219H47.8407L59.7965 6.55225H94.7702L82.8143 54.9219Z" fill="#AFCDFB"/>
<path d="M77.5905 51.9039H42.6169L54.5727 3.53369H89.5464L77.5905 51.9039Z" fill="#C0D8F9"/>
<path d="M71.93 48.4546H36.9557L48.9122 0.0849609H83.8858L71.93 48.4546Z" fill="#D4E3F4"/>
<path d="M88.834 6.55225L77.7688 51.6151L48.6932 51.9041L78.6468 52.563L88.834 6.55225Z" fill="#699DEE"/>
<path d="M83.0251 3.53369L72.5125 48.1655L43.4369 48.4545L73.006 49.1854L83.0251 3.53369Z" fill="#699DEE"/>
<path d="M57.3588 16.8475H47.5778L50.6401 4.56055H60.4211L57.3588 16.8475Z" fill="#E9F3FE"/>
<path d="M79.6883 6.25852H62.1643L62.5953 4.56055H80.1194L79.6883 6.25852Z" fill="#AFCDFB"/>
<path d="M78.8983 9.74387H61.3735L61.8046 8.0459H79.3293L78.8983 9.74387Z" fill="#AFCDFB"/>
<path d="M78.0719 13.2281H60.5472L60.9782 11.5308H78.5029L78.0719 13.2281Z" fill="#AFCDFB"/>
<path d="M77.1016 16.7134H59.5775L60.0085 15.0161H77.5326L77.1016 16.7134Z" fill="#AFCDFB"/>
<path d="M77.1016 20.3424H45.0216L45.4526 18.645H77.5326L77.1016 20.3424Z" fill="#AFCDFB"/>
<path d="M76.2453 23.9714H44.1653L44.5963 22.2734H76.6763L76.2453 23.9714Z" fill="#AFCDFB"/>
<path d="M75.0598 28.0572H42.9798L43.4108 26.3599H75.4908L75.0598 28.0572Z" fill="#AFCDFB"/>
<path d="M73.982 31.5855H41.9019L42.3329 29.8882H74.413L73.982 31.5855Z" fill="#AFCDFB"/>
<mask id="mask0_2_1233" style="mask-type:luminance" maskUnits="userSpaceOnUse" x="47" y="4" width="14" height="13">
<path d="M57.3588 16.8475H47.5778L50.6401 4.56055H60.4211L57.3588 16.8475Z" fill="white"/>
</mask>
<g mask="url(#mask0_2_1233)">
<path d="M58.3831 18.7897C58.373 18.8222 58.3596 18.8527 58.3424 18.8807C58.1495 19.1914 54.97 19.2073 54.6071 18.9463C54.4448 18.8298 54.3951 17.221 54.39 15.4784C54.3836 13.324 54.4454 10.9639 54.4454 10.9639C54.4454 10.9639 55.6894 11.5413 55.7499 12.2518C55.8104 12.9623 55.2877 17.2324 55.6506 17.4935C56.0141 17.7545 57.6898 17.7882 58.2488 17.9525C58.2488 17.9525 58.4863 18.4637 58.3831 18.7903V18.7897Z" fill="#A8D2A0"/>
<path d="M55.1667 6.06491C54.949 5.83826 54.5937 5.81725 54.3652 5.80133C54.4314 5.74849 54.5492 5.74149 54.5492 5.74149C54.411 5.70201 54.0787 5.80133 54.0787 5.80133C54.0787 5.80133 52.9677 5.03798 52.2145 6.52903C52.2145 6.52903 52.3247 6.42335 52.4724 6.3062C52.0376 7.16378 52.1834 8.56507 53.1549 8.93688C53.7865 9.17881 57.3963 8.38681 55.1667 6.06555V6.06491Z" fill="#163560"/>
<path d="M54.4932 11.3197C54.4995 11.3236 53.8208 11.5712 53.3599 11.3783C52.9263 11.1975 52.708 10.5761 52.7143 10.5761C52.9098 10.5627 52.9983 10.3087 53.1403 9.18311L53.2243 9.21112L54.6345 9.68543C54.6345 9.68543 54.5428 10.1368 54.4861 10.5659C54.4384 10.9263 54.4161 11.2707 54.4938 11.3197H54.4932Z" fill="#E49963"/>
<path d="M54.6345 9.68574C54.6345 9.68574 54.5428 10.1371 54.4861 10.5662C53.6789 10.4383 53.3465 9.64372 53.2243 9.21143L54.6345 9.68574Z" fill="#D68D5D"/>
<path d="M53.095 9.03453C53.095 9.03453 52.7576 8.30874 52.7302 7.72238C52.7105 7.30345 53.1161 5.81303 54.6128 6.22941C54.6128 6.22941 55.0502 6.33064 55.4303 6.66552C55.7327 6.93228 56.1478 7.47663 55.4418 8.73212L55.245 9.16123L53.0957 9.03453H53.095Z" fill="#163560"/>
<path d="M54.8522 10.1267C54.8522 10.1267 52.9321 9.90957 53.0855 8.71583C53.2389 7.5221 53.0944 6.68998 54.327 6.77784C55.5596 6.8657 55.7391 7.35211 55.7843 7.76275C55.8301 8.1734 55.3558 10.1521 54.8522 10.1267Z" fill="#E49963"/>
<path d="M54.9783 12.8307C54.9624 12.6906 55.2622 12.6251 55.317 12.7556C55.4195 12.9994 55.408 13.2891 55.431 13.524C55.4965 14.1944 55.231 15.066 55.231 15.066L54.9777 12.8307H54.9783Z" fill="#82B479"/>
<path d="M55.8136 7.09256C55.5647 6.69592 55.3304 6.74495 55.1909 6.83599C54.8573 6.16368 53.4318 6.88883 53.4318 6.88883C53.1925 7.72859 52.5112 8.13923 52.5112 8.13923C52.5112 8.13923 52.8327 8.40026 53.6649 8.29776C54.32 8.2169 54.8968 7.3746 55.1126 7.01935C55.2132 7.13522 55.4233 7.40071 55.466 7.63945C55.522 7.95587 55.4838 8.58744 55.6691 8.58935C55.6691 8.58935 56.1879 7.68848 55.8136 7.09256Z" fill="#163560"/>
<path d="M54.5205 9.34796C54.5205 9.34796 54.5364 9.50394 54.9172 9.53004C54.9172 9.53004 55.2361 9.55169 55.2482 9.38361C55.2482 9.38361 54.9566 9.22508 54.5205 9.34796Z" fill="white"/>
<path d="M58.3831 18.79C58.373 18.8225 58.3596 18.853 58.3424 18.8811C58.1495 19.1917 54.97 19.2077 54.6071 18.9466C54.4448 18.8301 54.3926 16.831 54.8395 15.1069C54.9458 16.1396 54.751 18.2049 55.2915 18.373C55.9046 18.564 57.5784 18.5678 58.3831 18.7894V18.79Z" fill="#82B479"/>
<path d="M55.3386 15.1615C54.0768 18.8051 54.6517 19.464 54.2009 19.7798C54.1984 19.7811 53.8228 19.8893 53.8202 19.8906C53.3523 20.2006 53.3994 19.7575 52.0025 20.1593C51.3372 20.3509 50.4835 20.6075 49.75 20.7303C49.4737 20.7762 49.2152 20.8036 48.9905 20.8004C48.5595 20.7953 48.252 20.6801 48.1858 20.3795C47.9935 19.5067 49.7227 17.4796 49.5578 15.9217C49.5565 15.9083 49.5552 15.8949 49.5539 15.8815C49.545 15.7459 49.5597 15.5938 49.5947 15.4289C49.771 14.5949 50.4625 13.438 51.1494 12.464C51.9083 11.3886 52.6615 10.5349 52.7137 10.5756C54.1965 11.7369 54.4441 10.9633 54.4441 10.9633C54.4441 10.9633 55.7684 13.9187 55.3374 15.1615H55.3386Z" fill="#A8D2A0"/>
<path d="M53.9539 19.855C53.486 20.1651 53.3981 19.7583 52.0019 20.1594C51.3366 20.351 50.4828 20.6076 49.7494 20.7304C49.3808 20.7464 49.1057 20.7667 48.9899 20.8005C48.5588 20.7954 48.2513 20.6802 48.1851 20.3796C47.9929 19.5068 49.722 17.4797 49.5571 15.9218C49.5559 15.9084 49.5546 15.895 49.5533 15.8816C49.5418 15.7282 49.5571 15.5786 49.5941 15.429C49.7532 14.7981 50.3141 14.1646 50.9788 13.2217C51.2869 13.6451 54.0239 13.5553 52.9072 17.1989C52.5647 18.3156 53.9011 18.9472 53.9526 19.855H53.9539Z" fill="#82B479"/>
<path d="M52.7143 10.5755C52.7143 10.5755 50.5312 10.3221 50.0041 11.3229C49.4769 12.3238 49.1185 16.0349 49.545 17.2203C49.9716 18.4058 53.0218 20.3285 53.3745 20.4355C53.7273 20.5424 54.0246 20.0159 54.0176 19.9535C54.0106 19.8911 50.9718 16.7021 51.024 16.4188C51.0762 16.1355 52.7143 10.5749 52.7143 10.5749V10.5755Z" fill="#A8D2A0"/>
</g>
<path d="M127.276 99.8608L126.496 103.145L125.328 103.138L125.285 99.8608H127.276Z" fill="#E49963"/>
<path d="M117.451 100.001L115.232 103.146L114.367 102.035L115.702 99.5688L117.451 100.001Z" fill="#E49963"/>
<path d="M123.219 56.7026C123.622 56.4734 124.106 56.4486 124.444 56.4683C124.356 56.3786 124.185 56.3455 124.185 56.3455C124.395 56.3143 124.863 56.5225 124.863 56.5225C127.778 55.3987 128.236 59.6917 128.175 60.6894C128.114 61.6864 129.155 62.0124 130.671 62.798C133.566 64.2973 133.82 66.3047 133.82 66.3047C133.797 66.3181 133.774 66.3334 133.748 66.3506C133.605 66.1074 133.309 65.6503 133.06 65.5815C133.07 65.6038 133.355 66.2105 133.461 66.5581C132.608 67.2075 131.01 68.647 129.897 69.6669C129.902 69.4677 129.894 69.1844 129.822 69.0347L129.684 69.863C129.088 70.4106 128.677 70.7957 128.677 70.7957C128.751 69.9897 125.033 65.7368 123.093 64.4629C122.62 63.7676 122.453 62.5395 122.44 62.4428C122.522 63.4168 122.688 63.9631 122.837 64.2706C121.195 62.7585 122.151 57.31 123.22 56.7026H123.219Z" fill="#163560"/>
<path d="M123.207 64.5264C123.198 64.5309 124.144 65.0224 124.856 64.8276C125.525 64.6448 125.963 63.7764 125.954 63.7745C125.67 63.7185 125.588 63.3289 125.595 61.6538L125.467 61.6793L123.311 62.1058C123.311 62.1058 123.36 62.7845 123.361 63.4231C123.363 63.9598 123.33 64.4685 123.207 64.5258V64.5264Z" fill="#E49963"/>
<path d="M123.31 62.1064C123.31 62.1064 123.359 62.7851 123.361 63.4236C124.567 63.3899 125.204 62.2891 125.465 61.6792L123.31 62.1058L123.31 62.1064Z" fill="#D68D5D"/>
<path d="M125.689 61.4449C125.689 61.4449 126.321 60.4459 126.473 59.5922C126.581 58.9823 126.27 56.7221 123.999 57.0481C123.999 57.0481 123.34 57.113 122.72 57.5319C122.226 57.8649 121.515 58.5837 122.31 60.5561L122.517 61.222L125.689 61.4449Z" fill="#163560"/>
<path d="M114.719 101.173L115.862 101.208L117.099 101.246C117.099 101.246 119.956 98.0657 121.558 92.9667C121.596 92.8483 121.635 92.7286 121.677 92.607C122.553 90.0496 124.372 86.8402 125.33 83.9344C125.483 83.4716 125.62 83.0361 125.742 82.6236C125.782 82.4918 125.82 82.3619 125.856 82.2339C126.562 79.7809 126.767 78.1701 126.955 76.4492L120.037 76.5046C120.037 76.5046 118.92 88.2561 114.719 101.173Z" fill="#2B478B"/>
<path d="M121.005 72.5293C121.022 75.8214 120.522 77.2342 120.522 77.2342C120.522 77.2342 123.484 78.7392 127.004 77.6315C127.046 77.6187 129.652 77.0954 129.652 77.0954C129.593 76.9623 128.874 74.6844 128.817 74.5628C128.073 72.9666 127.971 72.1925 127.884 71.7016C127.72 70.7855 127.717 69.8375 127.798 68.9436C128.013 66.5771 128.652 64.6124 128.652 64.6124C127.693 64.394 126.794 64.0108 125.796 63.6364C125.566 63.9223 124.864 64.2215 124.255 64.2081C123.554 64.1928 123.326 63.8923 123.363 63.5645C122.616 63.9802 122.02 64.373 122.02 64.373C121.384 65.4763 120.097 66.5478 120.004 68.2401C119.981 68.6565 121.006 72.4382 121.006 72.5305L121.005 72.5293Z" fill="#E7F1FD"/>
<path d="M116.988 67.6383C118.004 66.4522 120.635 63.8788 123.35 63.563L121.008 68.1278C121.008 68.1278 120.876 68.9103 120.182 69.3661C118.482 70.4828 116.321 70.9769 116.321 70.9769C116.321 70.9769 114.857 70.3383 112.857 68.8727C112.229 68.4124 111.126 66.6578 111.126 66.6578L111.423 65.6621C111.423 65.6621 113.296 66.7094 113.965 67.0118C114.347 67.1837 115.225 67.595 115.844 67.8853C116.237 68.0699 116.705 67.9687 116.988 67.6389L116.988 67.6383Z" fill="#699DEE"/>
<path d="M122.908 62.7112C122.908 62.7112 125.762 62.7583 125.764 60.9808C125.766 59.2032 126.136 58.012 124.314 57.9064C122.492 57.8013 122.137 58.4793 121.992 59.0721C121.847 59.6654 122.166 62.6527 122.908 62.7112Z" fill="#E49963"/>
<path d="M123.014 57.8632C123.014 57.8632 123.795 59.9489 124.994 60.257C126.194 60.5652 126.714 60.2443 126.714 60.2443C126.714 60.2443 125.794 59.5134 125.603 58.2382C125.603 58.2382 123.603 56.8706 123.014 57.8632Z" fill="#163560"/>
<path d="M123.207 58.0327C123.207 58.0327 122.623 58.4981 122.481 58.9508C122.339 59.4034 122.275 60.3355 122.003 60.3037C122.003 60.3037 121.414 58.8858 122.076 58.0843C122.778 57.2337 123.207 58.0327 123.207 58.0327H123.207Z" fill="#163560"/>
<path d="M111.424 65.6621C111.424 65.6621 111.022 64.2118 109.427 64.4168C109.245 64.4741 108.71 64.6874 109.052 65.2598C109.304 65.6819 109.413 65.4641 109.809 66.0308C110.205 66.5974 110.635 66.7254 111.126 66.6579L111.423 65.6621H111.424Z" fill="#E49963"/>
<path d="M126.535 102.961C126.535 102.961 126.441 103.612 126.684 104.308C126.684 104.308 126.875 105.179 126.017 105.195C125.16 105.211 124.949 105.131 125.047 104.596C125.144 104.062 125.329 103.138 125.329 103.138L126.536 102.961H126.535Z" fill="#E49963"/>
<path d="M124.965 105.567C124.965 105.567 124.984 105.579 125.019 105.596H126.699C126.731 105.579 126.746 105.567 126.746 105.567C126.843 105.13 126.685 104.308 126.685 104.308C125.713 105.198 125.105 104.286 125.105 104.286C124.947 104.666 124.966 105.567 124.966 105.567H124.965Z" fill="#D86713"/>
<path d="M112.3 104.684C112.3 104.684 113.881 102.929 114.367 102.035L115.543 102.637L112.914 105.106L112.299 105.025V104.683L112.3 104.684Z" fill="#E49963"/>
<path d="M111.318 105.596H113.482C113.691 105.44 113.885 105.08 114.127 104.596C114.256 104.338 114.546 104.195 114.843 104.117V105.579H115.292L115.718 104.025C115.997 103.51 115.74 103.044 115.542 102.637C115.313 102.637 114.697 102.793 113.529 104.109C113.144 104.542 112.72 104.696 112.299 104.683C112.294 104.687 112.287 104.69 112.282 104.692C111.577 105.009 111.376 105.402 111.318 105.595V105.596Z" fill="#D86713"/>
<path d="M123.363 63.564C123.363 63.564 121.711 67.643 121.663 68.4688C121.614 69.2945 121.469 81.9685 121.469 81.9685C121.469 81.9685 121.566 82.5511 120.449 82.3085C119.332 82.0659 119.04 81.8227 119.04 81.8227C119.04 81.8227 120.109 74.0046 119.817 71.2854C119.525 68.5662 122.051 64.1306 122.051 64.1306L123.363 63.564Z" fill="#699DEE"/>
<path d="M115.861 101.208L117.098 101.246C117.098 101.246 119.955 98.0657 121.558 92.9667C121.595 92.8482 121.635 92.7285 121.676 92.6069C122.553 90.0495 124.371 86.8401 125.329 83.9344C125.482 83.4715 125.619 83.036 125.742 82.6235C125.781 82.4917 125.819 82.3618 125.856 82.2338L124.837 81.4609C124.837 81.4609 121.779 86.4142 120.831 91.0751C120.009 95.1243 116.715 99.996 115.861 101.208V101.208Z" fill="#233862"/>
<path d="M124.731 91.5101C124.714 93.7766 124.828 98.9883 125.123 101.146H126.219C126.824 101.146 127.127 101.137 127.127 101.137C127.867 97.3858 128.394 94.2821 128.777 91.6069C129.092 89.4117 129.372 87.5303 129.587 85.91C129.804 84.2795 129.955 82.9145 130.008 81.7615C130.016 81.5801 130.023 81.4031 130.026 81.2318C130.029 81.0593 130.03 80.8919 130.029 80.7295L124.051 80.147C124.127 84.1185 124.741 90.1928 124.731 91.5101H124.731Z" fill="#2B478B"/>
<path d="M126.219 101.145C126.824 101.145 127.127 101.136 127.127 101.136C127.867 97.385 128.394 94.2813 128.777 91.6061C129.092 89.4109 129.372 87.5295 129.587 85.9092C129.804 84.2787 129.955 82.9137 130.008 81.7607L127.815 83.0513C127.815 83.0513 129.215 83.5453 128.681 87.2844C128.146 91.0235 126.962 100.615 126.219 101.145H126.219Z" fill="#233862"/>
<path d="M125.936 81.7253C125.936 81.7253 126.357 83.2469 127.813 83.0527C129.27 82.8585 131.342 81.9844 131.342 81.9844C131.342 81.9844 130.719 80.0171 129.945 77.4329C129.008 74.3044 127.848 70.2711 127.301 67.727C127.148 67.014 127.042 66.4187 127.004 65.9928L125.795 63.6479C125.795 63.6479 123.994 67.6927 123.896 68.7119C123.799 69.7319 125.935 81.7259 125.935 81.7259L125.936 81.7253Z" fill="#699DEE"/>
<path d="M126.001 70.848C126.066 72.4988 126.454 75.7038 129.918 77.4196C129.927 77.424 129.937 77.4291 129.946 77.4329C129.008 74.3044 127.849 70.2711 127.302 67.7271C126.666 68.6776 125.965 69.9394 126.001 70.8486V70.848Z" fill="#4A75CB"/>
<path d="M106.522 57.3884L105.429 58.481L109.773 62.8253L110.866 61.7327L106.522 57.3884Z" fill="#2B478B"/>
<path d="M109.735 61.3131L109.355 61.694C108.605 62.4439 108.605 63.6597 109.355 64.4095L130.613 85.6678C131.363 86.4177 132.579 86.4177 133.328 85.6678L133.709 85.2869C134.459 84.5371 134.459 83.3213 133.709 82.5714L112.451 61.3131C111.701 60.5633 110.485 60.5633 109.735 61.3131Z" fill="#C65447"/>
<path d="M80.2486 32.2074C73.153 39.303 73.153 50.8068 80.2486 57.9024C87.3442 64.998 98.848 64.998 105.944 57.9024C113.039 50.8068 113.039 39.303 105.944 32.2074C98.848 25.1118 87.3442 25.1118 80.2486 32.2074ZM104.528 56.4871C98.2145 62.8009 87.9777 62.8009 81.6639 56.4871C75.3501 50.1733 75.3501 39.9365 81.6639 33.6227C87.9777 27.309 98.2145 27.309 104.528 33.6227C110.842 39.9365 110.842 50.1733 104.528 56.4871Z" fill="#C65447"/>
<path d="M127.391 68.559L125.795 63.6465C125.8 63.6484 127.81 64.2449 128.821 64.7555C128.821 64.7555 129.454 65.5705 129.844 67.4505C129.844 67.4505 130.258 71.9644 129.335 73.6153C129.335 73.6153 126.422 74.1979 121.759 72.5954V71.5271C121.759 71.5271 126.858 71.7945 127.903 71.9154L127.391 68.5583V68.559Z" fill="#E49963"/>
<path d="M125.796 63.6465C125.796 63.6465 128.753 63.8547 129.465 65.4412C130.177 67.0278 130.404 72.3044 129.497 73.8585C129.497 73.8585 128.25 74.2138 126.042 73.8012C126.016 73.7961 125.988 73.791 125.961 73.7859C125.961 73.7859 125.257 72.0619 125.888 71.7219C125.888 71.7219 127.75 71.8193 127.556 71.2036C127.361 70.5886 125.797 63.6465 125.797 63.6465H125.796Z" fill="#699DEE"/>
<path d="M122.283 71.8118C122.283 71.8118 121.877 71.3197 121.79 70.8167C121.703 70.3144 121.435 69.9413 120.733 69.849C120.032 69.7567 119.73 69.7471 119.732 69.9445C119.734 70.1418 120.305 71.5221 121.311 72.3459C122.317 73.1698 122.283 71.8112 122.283 71.8112V71.8118Z" fill="#E49963"/>
<path opacity="0.4" d="M100.256 30.4434L78.6028 52.0962C78.9562 52.8111 79.3605 53.4968 79.8119 54.1475L102.307 31.6524C101.656 31.201 100.971 30.7967 100.256 30.4434Z" fill="white"/>
<path opacity="0.4" d="M98.7703 29.8008C97.0074 29.1413 95.0993 28.7803 93.1066 28.7803C84.1774 28.7803 76.9392 36.0185 76.9392 44.9476C76.9392 46.9404 77.3009 48.8484 77.9598 50.6113L98.7703 29.8008Z" fill="white"/>
<path opacity="0.4" d="M85.9454 59.4453C88.1043 60.5136 90.5351 61.1153 93.1072 61.1153C102.036 61.1153 109.275 53.8771 109.275 44.9479C109.275 42.3758 108.673 39.945 107.605 37.7861L85.9454 59.4453Z" fill="white"/>
</g>
</g>
<defs>
<clipPath id="clip0_2_1233">
<rect width="170" height="118.28" fill="white" transform="translate(0 0.0849609)"/>
</clipPath>
<clipPath id="clip1_2_1233">
<rect width="169.988" height="118.28" fill="white" transform="translate(0.005867 0.0849609)"/>
</clipPath>
</defs>
</svg>
