<svg width="170" height="121" viewBox="0 0 170 121" fill="none" xmlns="http://www.w3.org/2000/svg">
<g clip-path="url(#clip0_2_1374)">
<g clip-path="url(#clip1_2_1374)">
<path d="M136.008 55.3694C123.958 18.7014 59.2154 17.1071 54.2433 58.2483C54.2433 58.2483 50.4052 59.0005 47.0191 58.4877C28.5585 55.6911 -3.74465 90.6908 21.0468 117.436H159.495C174.475 91.8937 163.715 65.7594 136.007 55.3694H136.008Z" fill="#F6F5F5"/>
<path d="M102.546 71.1433L102.307 70.9135C117.761 55.1848 118.375 46.5823 119.305 33.561C119.634 28.9504 120.006 23.7333 121.077 17.4379C113.758 20.8056 107.826 25.47 103.44 31.3051C99.8856 36.0347 97.3321 41.5405 95.8518 47.67C93.3281 58.1163 94.8192 66.8677 94.8343 66.955L94.5064 67.012C94.4912 66.924 92.9887 58.1157 95.5251 47.6054C97.0149 41.4297 99.5867 35.8815 103.168 31.1139C107.645 25.1547 113.72 20.4086 121.225 17.0067L121.512 16.877L121.459 17.1847C120.351 23.6029 119.972 28.9055 119.638 33.5838C118.703 46.6773 118.086 55.3279 102.547 71.1427L102.546 71.1433Z" fill="#DADADA"/>
<path d="M99.6336 67.7646L99.3107 67.6823C99.3721 67.4461 105.526 43.9279 113.268 30.873L113.556 31.0402C105.837 44.0558 99.6944 67.5291 99.633 67.7646H99.6336Z" fill="#DADADA"/>
<path d="M108.168 41.9257L107.835 41.9137C107.837 41.8668 107.975 37.1461 105.485 32.602L105.778 32.4443C108.313 37.0701 108.17 41.877 108.168 41.9251V41.9257Z" fill="#DADADA"/>
<path d="M104.615 51.4875L104.381 51.2539C107.922 47.7729 112.549 46.6971 112.595 46.687L112.669 47.0087C112.623 47.0188 108.087 48.0755 104.615 51.4882V51.4875Z" fill="#DADADA"/>
<path d="M112.402 83.1209L112.369 82.7923C118.395 82.2016 123.283 78.2039 127.312 70.5713C130.882 63.8093 133.334 55.1694 135.705 46.8138C137.242 41.3966 138.697 36.2731 140.394 31.8367C123.053 36.1269 115.866 49.7357 115.795 49.8738L115.498 49.7243C115.57 49.5844 122.906 35.6831 140.624 31.4416L140.932 31.3682L140.818 31.6613C139.078 36.151 137.596 41.3744 136.026 46.9043C133.65 55.2758 131.193 63.9328 127.607 70.7252C123.522 78.4641 118.548 82.5188 112.402 83.1222V83.1209Z" fill="#DADADA"/>
<path d="M110.926 75.0192L110.621 74.8856C110.723 74.6596 120.852 52.2025 129.36 45.6729L129.564 45.9337C126.076 48.61 121.749 54.485 117.05 62.9229C113.493 69.3076 110.95 74.9628 110.925 75.0192H110.926Z" fill="#DADADA"/>
<path d="M122.119 54.4218L121.792 54.361C121.797 54.3363 122.267 51.793 122.685 45.6489L123.018 45.6711C122.598 51.8392 122.124 54.3965 122.12 54.4212L122.119 54.4218Z" fill="#DADADA"/>
<path d="M116.44 63.9874L116.251 63.7158C116.297 63.6848 120.924 60.5602 126.999 59.1895L127.073 59.5111C121.06 60.8686 116.485 63.9564 116.44 63.9874Z" fill="#DADADA"/>
<path d="M37.6562 98.3447C22.6911 83.1137 22.096 74.7828 21.1963 62.1724C20.8746 57.6669 20.5099 52.5606 19.4424 46.3805L19.3893 46.0728L19.6761 46.2026C36.0473 53.6237 42.1724 66.3246 44.4283 75.6724C46.871 85.7951 45.4242 94.2786 45.4097 94.3628L45.0817 94.3059C45.0963 94.2223 46.5316 85.7951 44.1016 75.7363C41.8748 66.519 35.8523 54.0137 19.8242 46.6325C20.8537 52.6904 21.2121 57.71 21.5287 62.1477C22.4239 74.6859 23.0153 82.9687 37.8955 98.1136L37.6568 98.3434L37.6562 98.3447Z" fill="#DADADA"/>
<path d="M40.4597 95.0889C40.4009 94.8622 34.4854 72.2582 27.0529 59.7257L27.3403 59.5586C34.7969 72.1316 40.7238 94.7793 40.7826 95.0072L40.4597 95.0895V95.0889Z" fill="#DADADA"/>
<path d="M32.2415 70.2049C32.2396 70.1587 32.1016 65.5279 34.5442 61.0718L34.8374 61.2288C32.4397 65.6032 32.5733 70.1473 32.5745 70.1929L32.2415 70.2049Z" fill="#DADADA"/>
<path d="M35.6636 79.4171C32.3219 76.1323 27.9551 75.1148 27.9114 75.1047L27.9855 74.7837C28.0298 74.7938 32.4872 75.8296 35.8985 79.1834L35.6636 79.4171Z" fill="#DADADA"/>
<path d="M27.3701 104.13C14.5128 102.946 9.36591 88.8359 4.82498 76.387C3.29023 72.1791 1.84033 68.2048 0.158692 64.7839L0.00990295 64.4819L0.342305 64.5503C9.02717 66.3396 15.0142 70.091 18.5066 72.9224C22.296 75.9944 24.0555 78.684 24.0726 78.7113L23.7921 78.8892C23.7244 78.7841 16.8497 68.4093 0.605694 64.9429C2.23288 68.3093 3.64543 72.1823 5.13839 76.2756C9.64576 88.6327 14.7546 102.638 27.4011 103.802L27.3701 104.131V104.13Z" fill="#DADADA"/>
<path d="M28.6509 98C28.554 97.8285 18.8422 80.7544 10.8696 75.7468L11.0482 75.4683C19.0923 80.5208 28.8447 97.6664 28.9422 97.8392L28.6515 98.0007L28.6509 98Z" fill="#DADADA"/>
<path d="M17.9242 82.2439C17.9197 82.2249 17.4449 80.2767 16.9763 75.5933L17.3075 75.561C17.7728 80.2159 18.2426 82.1464 18.2471 82.1654L17.9235 82.2439H17.9242Z" fill="#DADADA"/>
<path d="M23.3673 89.5841C23.3243 89.56 19.003 87.1635 13.3617 86.0638L13.4263 85.7402C19.1227 86.8508 23.4882 89.2732 23.5319 89.2972L23.3679 89.5841H23.3673Z" fill="#DADADA"/>
<path d="M146.904 105.592L146.825 105.271C160.981 101.849 163.65 86.795 166.231 72.237C167.137 67.1269 168.074 61.8465 169.505 57.2764C155.414 59.9489 147.432 69.5816 143.209 77.218C138.598 85.5584 137.349 93.3866 137.337 93.4645L137.008 93.4151C137.02 93.3366 138.276 85.4597 142.912 77.0692C147.196 69.3176 155.325 59.526 169.717 56.9016L169.99 56.8516L169.907 57.113C168.434 61.7224 167.482 67.0965 166.56 72.294C163.96 86.9564 161.272 102.118 146.904 105.591L146.904 105.592Z" fill="#DADADA"/>
<path d="M145.692 97.3396L145.371 97.2516C145.423 97.0667 150.642 78.6954 159.131 71.4414L159.349 71.6915C150.937 78.8802 145.744 97.1567 145.692 97.3403V97.3396Z" fill="#DADADA"/>
<path d="M151.692 81.9357L151.366 81.8692C151.374 81.8319 152.136 78.0887 151.868 72.593L152.201 72.5771C152.471 78.1178 151.7 81.8983 151.692 81.9357Z" fill="#DADADA"/>
<path d="M147.203 89.9319L146.999 89.6716C147.045 89.6362 151.703 86.0754 158.139 83.8125L158.25 84.1234C151.865 86.3685 147.249 89.897 147.203 89.9325V89.9319Z" fill="#DADADA"/>
<path d="M114.243 38.1429C113.646 38.1429 113.16 37.6617 113.16 37.0709C113.16 36.4802 113.646 35.999 114.243 35.999C114.84 35.999 115.325 36.4802 115.325 37.0709C115.325 37.6617 114.84 38.1429 114.243 38.1429ZM114.243 36.3289C113.829 36.3289 113.493 36.6619 113.493 37.0709C113.493 37.48 113.829 37.813 114.243 37.813C114.656 37.813 114.992 37.48 114.992 37.0709C114.992 36.6619 114.656 36.3289 114.243 36.3289Z" fill="#DADADA"/>
<path d="M24.4576 54.7181C23.8605 54.7181 23.3749 54.2369 23.3749 53.6461C23.3749 53.0554 23.8605 52.5742 24.4576 52.5742C25.0546 52.5742 25.5403 53.0554 25.5403 53.6461C25.5403 54.2369 25.0546 54.7181 24.4576 54.7181ZM24.4576 52.9041C24.0441 52.9041 23.7079 53.2371 23.7079 53.6461C23.7079 54.0552 24.0441 54.3882 24.4576 54.3882C24.871 54.3882 25.2072 54.0552 25.2072 53.6461C25.2072 53.2371 24.871 52.9041 24.4576 52.9041Z" fill="#DADADA"/>
<path d="M124.904 78.6043C124.307 78.6043 123.821 78.1237 123.821 77.5324C123.821 76.941 124.307 76.4604 124.904 76.4604C125.501 76.4604 125.986 76.941 125.986 77.5324C125.986 78.1237 125.501 78.6043 124.904 78.6043ZM124.904 76.7903C124.49 76.7903 124.154 77.1234 124.154 77.5324C124.154 77.9414 124.49 78.2744 124.904 78.2744C125.317 78.2744 125.653 77.9414 125.653 77.5324C125.653 77.1234 125.317 76.7903 124.904 76.7903Z" fill="#DADADA"/>
<path d="M161.745 67.1692C161.148 67.1692 160.663 66.6887 160.663 66.0973C160.663 65.506 161.148 65.0254 161.745 65.0254C162.342 65.0254 162.828 65.506 162.828 66.0973C162.828 66.6887 162.342 67.1692 161.745 67.1692ZM161.745 65.3553C161.332 65.3553 160.996 65.6883 160.996 66.0979C160.996 66.5076 161.332 66.84 161.745 66.84C162.159 66.84 162.495 66.5069 162.495 66.0979C162.495 65.6889 162.159 65.3553 161.745 65.3553Z" fill="#DADADA"/>
<path d="M121.323 64.1184C121.737 64.1184 122.072 63.7861 122.072 63.3763C122.072 62.9665 121.737 62.6343 121.323 62.6343C120.909 62.6343 120.573 62.9665 120.573 63.3763C120.573 63.7861 120.909 64.1184 121.323 64.1184Z" fill="#DADADA"/>
<path d="M155.832 91.4406C156.246 91.4406 156.582 91.1084 156.582 90.6986C156.582 90.2888 156.246 89.9565 155.832 89.9565C155.418 89.9565 155.083 90.2888 155.083 90.6986C155.083 91.1084 155.418 91.4406 155.832 91.4406Z" fill="#DADADA"/>
<path d="M100.667 42.9255C101.081 42.9255 101.417 42.5933 101.417 42.1835C101.417 41.7736 101.081 41.4414 100.667 41.4414C100.253 41.4414 99.9172 41.7736 99.9172 42.1835C99.9172 42.5933 100.253 42.9255 100.667 42.9255Z" fill="#DADADA"/>
<path d="M17.9052 93.8596C18.3192 93.8596 18.6548 93.5274 18.6548 93.1175C18.6548 92.7077 18.3192 92.3755 17.9052 92.3755C17.4911 92.3755 17.1555 92.7077 17.1555 93.1175C17.1555 93.5274 17.4911 93.8596 17.9052 93.8596Z" fill="#DADADA"/>
<path d="M39.2523 42.6197C39.1567 42.6197 39.0592 42.6064 38.963 42.5779L36.8907 41.965C36.6317 41.8884 36.419 41.7168 36.2911 41.4819C36.1638 41.2477 36.136 40.9779 36.2139 40.7228L36.9198 38.4017C36.0435 37.9414 35.2394 37.3627 34.5265 36.6801L32.5061 38.03C32.0446 38.3383 31.4159 38.2187 31.1037 37.7634L29.8919 35.9957C29.7406 35.7754 29.6855 35.5094 29.7368 35.248C29.788 34.9858 29.9387 34.7592 30.1629 34.6097L32.1598 33.2757C31.7369 32.2893 31.4716 31.2446 31.3709 30.1676L29.0017 29.8991C28.7332 29.8687 28.4926 29.7364 28.3255 29.5275C28.1583 29.3192 28.083 29.059 28.114 28.7943L28.3616 26.6733C28.4249 26.1269 28.927 25.733 29.4803 25.7957L31.8186 26.061C32.132 25.0891 32.5872 24.1717 33.1735 23.3296L31.559 21.672C31.3722 21.4802 31.2721 21.2276 31.2772 20.961C31.2823 20.6945 31.3924 20.4456 31.5875 20.2607L33.1469 18.7811C33.5483 18.3999 34.189 18.412 34.5746 18.8083L36.1752 20.4513C37.0838 19.8752 38.0702 19.4434 39.1111 19.166L38.9623 16.9013C38.9263 16.3523 39.3492 15.8768 39.9045 15.8408L42.0629 15.7015C42.6251 15.6647 43.1 16.0832 43.136 16.6316L43.2848 18.8963C44.3529 19.0381 45.3875 19.3395 46.3632 19.7941L47.7352 17.9593C48.0657 17.5167 48.6989 17.4224 49.1471 17.7484L50.8877 19.016C51.1048 19.1743 51.2466 19.4066 51.2865 19.67C51.3264 19.9334 51.2606 20.1968 51.1004 20.4114L49.717 22.2621C50.4077 23.0225 50.9795 23.8741 51.417 24.7966L53.7007 24.2331C54.2414 24.1008 54.7904 24.4256 54.9252 24.9593L55.4482 27.031C55.5134 27.2893 55.4729 27.5571 55.3342 27.7851C55.195 28.0143 54.9746 28.1757 54.7125 28.2403L52.399 28.8108C52.4414 29.8922 52.3154 30.9616 52.0242 31.9942L54.1787 33.0604C54.42 33.1801 54.5998 33.3852 54.6846 33.6385C54.7695 33.8911 54.7492 34.1615 54.6283 34.3995L53.6589 36.3078C53.4088 36.7992 52.801 36.9986 52.3034 36.7523L50.1222 35.6734C49.5055 36.4414 48.7843 37.1176 47.9745 37.6875L48.9787 39.8984C49.0889 40.1416 49.0971 40.4119 49.0015 40.6607C48.9059 40.9102 48.7172 41.1077 48.4703 41.2173L46.4968 42.091C45.9884 42.3151 45.39 42.091 45.1621 41.5889L44.1529 39.3666C43.6261 39.4818 43.0873 39.5578 42.5491 39.5926C42.0103 39.6274 41.4664 39.6211 40.9283 39.5749L40.2191 41.908C40.0881 42.3398 39.6854 42.619 39.2511 42.619L39.2523 42.6197ZM34.5664 36.2553L34.6633 36.3509C35.4085 37.0835 36.2607 37.6957 37.1952 38.1718L37.3187 38.2345L36.533 40.8177C36.481 40.9881 36.4994 41.1685 36.5849 41.3255C36.6704 41.4832 36.8134 41.5978 36.9869 41.6491L39.0592 42.262C39.4176 42.3677 39.7949 42.167 39.9019 41.8137L40.6902 39.221L40.827 39.2349C41.3905 39.2912 41.9635 39.3007 42.5295 39.2646C43.0955 39.2279 43.6622 39.1443 44.213 39.0164L44.3466 38.9854L45.4686 41.4553C45.6211 41.7915 46.0219 41.9416 46.3632 41.7915L48.3367 40.9178C48.502 40.845 48.6286 40.7126 48.6925 40.5455C48.7565 40.379 48.7514 40.1979 48.6773 40.0358L47.5598 37.5754L47.6738 37.4975C48.5393 36.9055 49.3035 36.1888 49.9455 35.367L50.0291 35.26L52.4541 36.4598C52.7884 36.6251 53.1955 36.4915 53.3626 36.1622L54.332 34.2539C54.413 34.095 54.4263 33.9139 54.3693 33.7455C54.3123 33.5758 54.192 33.4384 54.0306 33.3587L51.6278 32.169L51.6671 32.0366C51.9881 30.9559 52.1204 29.8314 52.0615 28.6949L52.0545 28.5594L54.634 27.9231C54.81 27.88 54.9575 27.7718 55.0506 27.6179C55.143 27.4653 55.1703 27.2861 55.1266 27.1133L54.6036 25.0416C54.5131 24.6845 54.1458 24.4661 53.783 24.5554L51.2308 25.1847L51.1738 25.0594C50.7243 24.0793 50.1209 23.1796 49.3814 22.3862L49.2877 22.2862L50.8345 20.2164C50.9415 20.0727 50.9858 19.8967 50.9592 19.7207C50.9326 19.5447 50.8376 19.3889 50.692 19.2832L48.9515 18.0156C48.6507 17.7965 48.2265 17.8605 48.0049 18.1568L46.4689 20.2114L46.3442 20.1512C45.3242 19.6599 44.2358 19.3421 43.1094 19.2078L42.9721 19.1914L42.8055 16.6543C42.7815 16.2871 42.4579 16.0085 42.0863 16.0313L39.9279 16.1706C39.5556 16.1947 39.2719 16.5132 39.296 16.8804L39.4632 19.4174L39.3289 19.451C38.2298 19.7283 37.1921 20.1829 36.2442 20.8015L36.1284 20.8768L34.3366 19.0369C34.0782 18.7716 33.6483 18.7627 33.3793 19.0185L31.8198 20.4982C31.6894 20.6216 31.6153 20.7882 31.6121 20.9667C31.6083 21.1453 31.6755 21.3137 31.8008 21.4422L33.6066 23.2954L33.5268 23.4069C32.8962 24.2876 32.4156 25.2569 32.0984 26.287L32.0579 26.4181L29.4449 26.1218C29.0732 26.0762 28.737 26.3428 28.6946 26.7093L28.447 28.8304C28.4262 29.007 28.4768 29.1812 28.5889 29.3204C28.7016 29.461 28.8624 29.549 29.0422 29.5693L31.6824 29.8687L31.6932 30.0042C31.7844 31.1388 32.0629 32.2373 32.522 33.2681L32.5783 33.3941L30.3515 34.882C30.2015 34.982 30.1002 35.134 30.066 35.3087C30.0318 35.4835 30.0685 35.6608 30.1698 35.8083L31.3817 37.576C31.5912 37.8812 32.0129 37.9616 32.3219 37.7546L34.5683 36.2534L34.5664 36.2553ZM41.8666 35.2727C38.7034 35.2727 36.034 32.8401 35.8257 29.6807C35.6092 26.3896 38.1456 23.5366 41.4804 23.322C43.0955 23.2175 44.6543 23.7405 45.8706 24.7941C47.0869 25.8483 47.815 27.3064 47.9195 28.9007C48.0246 30.4956 47.494 32.0347 46.4259 33.2358C45.3578 34.4369 43.8806 35.1555 42.2655 35.2594C42.1319 35.2682 41.9989 35.2727 41.8666 35.2727ZM41.8837 23.6386C41.757 23.6386 41.6298 23.643 41.5025 23.6506C38.3514 23.8539 35.9543 26.5492 36.1588 29.6585C36.3633 32.7686 39.0959 35.1327 42.2446 34.9301C43.7711 34.832 45.1672 34.1526 46.177 33.0174C47.1863 31.8828 47.6877 30.4278 47.5883 28.9216C47.4896 27.4153 46.802 26.0369 45.6522 25.0416C44.5992 24.1293 43.2734 23.638 41.8843 23.638L41.8837 23.6386Z" fill="#DADADA"/>
<path d="M87.7957 0.974609H38.2709C36.5467 0.974609 35.1489 2.3724 35.1489 4.09665V75.7137C35.1489 77.438 36.5467 78.8358 38.2709 78.8358H87.7957C89.5199 78.8358 90.9177 77.438 90.9177 75.7137V4.09665C90.9177 2.3724 89.5199 0.974609 87.7957 0.974609Z" fill="#86A7FF"/>
<path d="M72.8616 4.40039H53.2056V7.66679H72.8616V4.40039Z" fill="#D3DFFF"/>
<path d="M85.3555 12.6465H40.7124V22.4482H85.3555V12.6465Z" fill="#DADADA"/>
<path d="M83.4016 13.9878H42.6656V21.1082H83.4016V13.9878Z" fill="white"/>
<path d="M73.7031 26.9951H70.688C69.7726 26.9951 69.0305 27.7372 69.0305 28.6527V29.296C69.0305 30.2114 69.7726 30.9535 70.688 30.9535H73.7031C74.6185 30.9535 75.3607 30.2114 75.3607 29.296V28.6527C75.3607 27.7372 74.6185 26.9951 73.7031 26.9951Z" fill="#1F3C88"/>
<path d="M83.6979 26.9951H80.6829C79.7674 26.9951 79.0253 27.7372 79.0253 28.6527V29.296C79.0253 30.2114 79.7674 30.9535 80.6829 30.9535H83.6979C84.6134 30.9535 85.3555 30.2114 85.3555 29.296V28.6527C85.3555 27.7372 84.6134 26.9951 83.6979 26.9951Z" fill="#1F3C88"/>
<path d="M84.5647 35.7363H78.4814C78.0454 35.7363 77.6919 36.0898 77.6919 36.5259V40.1145C77.6919 40.5506 78.0454 40.9041 78.4814 40.9041H84.5647C85.0008 40.9041 85.3542 40.5506 85.3542 40.1145V36.5259C85.3542 36.0898 85.0008 35.7363 84.5647 35.7363Z" fill="#1F3C88"/>
<path d="M72.3399 35.7363H66.2566C65.8206 35.7363 65.4671 36.0898 65.4671 36.5259V40.1145C65.4671 40.5506 65.8206 40.9041 66.2566 40.9041H72.3399C72.776 40.9041 73.1294 40.5506 73.1294 40.1145V36.5259C73.1294 36.0898 72.776 35.7363 72.3399 35.7363Z" fill="#1F3C88"/>
<path d="M60.1151 35.7363H54.0319C53.5958 35.7363 53.2423 36.0898 53.2423 36.5259V40.1145C53.2423 40.5506 53.5958 40.9041 54.0319 40.9041H60.1151C60.5512 40.9041 60.9047 40.5506 60.9047 40.1145V36.5259C60.9047 36.0898 60.5512 35.7363 60.1151 35.7363Z" fill="#1F3C88"/>
<path d="M47.891 35.7363H41.8077C41.3716 35.7363 41.0182 36.0898 41.0182 36.5259V40.1145C41.0182 40.5506 41.3716 40.9041 41.8077 40.9041H47.891C48.327 40.9041 48.6805 40.5506 48.6805 40.1145V36.5259C48.6805 36.0898 48.327 35.7363 47.891 35.7363Z" fill="#1F3C88"/>
<path d="M84.5647 45.0815H78.4814C78.0454 45.0815 77.6919 45.435 77.6919 45.8711V49.4598C77.6919 49.8958 78.0454 50.2493 78.4814 50.2493H84.5647C85.0008 50.2493 85.3542 49.8958 85.3542 49.4598V45.8711C85.3542 45.435 85.0008 45.0815 84.5647 45.0815Z" fill="#1F3C88"/>
<path d="M72.3399 45.0815H66.2566C65.8206 45.0815 65.4671 45.435 65.4671 45.8711V49.4598C65.4671 49.8958 65.8206 50.2493 66.2566 50.2493H72.3399C72.776 50.2493 73.1294 49.8958 73.1294 49.4598V45.8711C73.1294 45.435 72.776 45.0815 72.3399 45.0815Z" fill="#D3DFFF"/>
<path d="M60.1151 45.0815H54.0319C53.5958 45.0815 53.2423 45.435 53.2423 45.8711V49.4598C53.2423 49.8958 53.5958 50.2493 54.0319 50.2493H60.1151C60.5512 50.2493 60.9047 49.8958 60.9047 49.4598V45.8711C60.9047 45.435 60.5512 45.0815 60.1151 45.0815Z" fill="#D3DFFF"/>
<path d="M47.891 45.0815H41.8077C41.3716 45.0815 41.0182 45.435 41.0182 45.8711V49.4598C41.0182 49.8958 41.3716 50.2493 41.8077 50.2493H47.891C48.327 50.2493 48.6805 49.8958 48.6805 49.4598V45.8711C48.6805 45.435 48.327 45.0815 47.891 45.0815Z" fill="#D3DFFF"/>
<path d="M84.5647 54.4272H78.4814C78.0454 54.4272 77.6919 54.7807 77.6919 55.2168V58.8055C77.6919 59.2415 78.0454 59.595 78.4814 59.595H84.5647C85.0008 59.595 85.3542 59.2415 85.3542 58.8055V55.2168C85.3542 54.7807 85.0008 54.4272 84.5647 54.4272Z" fill="#1F3C88"/>
<path d="M72.3399 54.4272H66.2566C65.8206 54.4272 65.4671 54.7807 65.4671 55.2168V58.8055C65.4671 59.2415 65.8206 59.595 66.2566 59.595H72.3399C72.776 59.595 73.1294 59.2415 73.1294 58.8055V55.2168C73.1294 54.7807 72.776 54.4272 72.3399 54.4272Z" fill="#D3DFFF"/>
<path d="M60.1151 54.4272H54.0319C53.5958 54.4272 53.2423 54.7807 53.2423 55.2168V58.8055C53.2423 59.2415 53.5958 59.595 54.0319 59.595H60.1151C60.5512 59.595 60.9047 59.2415 60.9047 58.8055V55.2168C60.9047 54.7807 60.5512 54.4272 60.1151 54.4272Z" fill="#D3DFFF"/>
<path d="M47.891 54.4272H41.8077C41.3716 54.4272 41.0182 54.7807 41.0182 55.2168V58.8055C41.0182 59.2415 41.3716 59.595 41.8077 59.595H47.891C48.327 59.595 48.6805 59.2415 48.6805 58.8055V55.2168C48.6805 54.7807 48.327 54.4272 47.891 54.4272Z" fill="#D3DFFF"/>
<path d="M84.5647 64.103H78.4814C78.0454 64.103 77.6919 64.4565 77.6919 64.8926V68.4812C77.6919 68.9173 78.0454 69.2708 78.4814 69.2708H84.5647C85.0008 69.2708 85.3542 68.9173 85.3542 68.4812V64.8926C85.3542 64.4565 85.0008 64.103 84.5647 64.103Z" fill="#FBC343"/>
<path d="M72.3399 64.103H66.2566C65.8206 64.103 65.4671 64.4565 65.4671 64.8926V68.4812C65.4671 68.9173 65.8206 69.2708 66.2566 69.2708H72.3399C72.776 69.2708 73.1294 68.9173 73.1294 68.4812V64.8926C73.1294 64.4565 72.776 64.103 72.3399 64.103Z" fill="#D3DFFF"/>
<path d="M60.1151 64.103H54.0319C53.5958 64.103 53.2423 64.4565 53.2423 64.8926V68.4812C53.2423 68.9173 53.5958 69.2708 54.0319 69.2708H60.1151C60.5512 69.2708 60.9047 68.9173 60.9047 68.4812V64.8926C60.9047 64.4565 60.5512 64.103 60.1151 64.103Z" fill="#D3DFFF"/>
<path d="M47.891 64.103H41.8077C41.3716 64.103 41.0182 64.4565 41.0182 64.8926V68.4812C41.0182 68.9173 41.3716 69.2708 41.8077 69.2708H47.891C48.327 69.2708 48.6805 68.9173 48.6805 68.4812V64.8926C48.6805 64.4565 48.327 64.103 47.891 64.103Z" fill="#D3DFFF"/>
<path d="M74.5319 19.1625C74.6496 19.1745 74.7858 19.1625 74.9713 19.1441C75.2872 19.1017 75.5842 18.9725 75.8134 18.7579C76.0793 18.5186 76.2718 18.1691 76.3458 17.6974H76.3275C76.104 17.9671 75.7823 18.1267 75.3803 18.1267C74.656 18.1267 74.1912 17.5872 74.1912 16.9066C74.1912 16.1525 74.7421 15.4902 75.5658 15.4902C76.3895 15.4902 76.8967 16.1525 76.8967 17.17C76.8967 18.0469 76.5997 18.6598 76.2034 19.0403C75.8938 19.3404 75.4664 19.5246 75.0333 19.5734C74.8352 19.6038 74.6617 19.6101 74.5319 19.6038V19.1625ZM74.73 16.8699C74.73 17.3662 75.0333 17.7157 75.5037 17.7157C75.8691 17.7157 76.154 17.5378 76.2965 17.2991C76.3275 17.2504 76.3458 17.189 76.3458 17.1029C76.3458 16.4222 76.0919 15.9011 75.5227 15.9011C75.0587 15.9011 74.73 16.3057 74.73 16.8699Z" fill="#3A6BEA"/>
<path d="M77.7103 19.1625C77.828 19.1745 77.9642 19.1625 78.1497 19.1441C78.4656 19.1017 78.7626 18.9725 78.9917 18.7579C79.2577 18.5186 79.4502 18.1691 79.5242 17.6974H79.5059C79.2824 17.9671 78.9607 18.1267 78.5587 18.1267C77.8344 18.1267 77.3696 17.5872 77.3696 16.9066C77.3696 16.1525 77.9205 15.4902 78.7442 15.4902C79.5679 15.4902 80.0751 16.1525 80.0751 17.17C80.0751 18.0469 79.7781 18.6598 79.3818 19.0403C79.0722 19.3404 78.6448 19.5246 78.2117 19.5734C78.0135 19.6038 77.8401 19.6101 77.7103 19.6038V19.1625ZM77.9084 16.8699C77.9084 17.3662 78.2117 17.7157 78.6821 17.7157C79.0475 17.7157 79.3324 17.5378 79.4748 17.2991C79.5059 17.2504 79.5242 17.189 79.5242 17.1029C79.5242 16.4222 79.2703 15.9011 78.7011 15.9011C78.237 15.9011 77.9084 16.3057 77.9084 16.8699Z" fill="#3A6BEA"/>
<path d="M165.835 98.7295H111.829V120.826H165.835V98.7295Z" fill="#FBC343"/>
<path d="M165.837 103.732H151.448V104.062H165.837V103.732Z" fill="#E49B31"/>
<path d="M165.837 115.826H140.805V116.156H165.837V115.826Z" fill="#E49B31"/>
<path d="M138.753 106.736C138.753 109.279 138.067 111.835 136.671 114.319C134.548 118.093 128.286 120.659 121.202 120.659H111.829V98.7305H136.428C137.966 101.31 138.752 104.015 138.752 106.736H138.753Z" fill="#E49B31"/>
<path d="M97.9184 108.929V111.284C97.9184 112.112 97.2422 112.781 96.4058 112.781H71.3224C70.4861 112.781 69.8099 112.111 69.8099 111.284V108.929C69.8099 108.1 70.4861 107.431 71.3224 107.431H96.4058C97.2422 107.431 97.9184 108.101 97.9184 108.929Z" fill="#FBC343"/>
<path d="M94.8097 103.576V105.934C94.8097 106.762 94.1303 107.431 93.2971 107.431H68.2137C67.3773 107.431 66.7011 106.762 66.7011 105.934V103.576C66.7011 102.751 67.3773 102.078 68.2137 102.078H93.2971C94.1297 102.078 94.8097 102.751 94.8097 103.576Z" fill="#FBC343"/>
<path d="M97.9184 108.929V111.284C97.9184 112.112 97.2422 112.781 96.4058 112.781H78.4188C77.1759 111.264 76.4167 109.308 75.9602 107.431C75.4341 105.281 75.2973 103.239 75.2676 102.078H93.2983C94.1309 102.078 94.8109 102.751 94.8109 103.576V105.934C94.8109 106.762 94.1316 107.431 93.2983 107.431H96.4064C97.2428 107.431 97.919 108.101 97.919 108.929H97.9184Z" fill="#E49B31"/>
<path d="M109.849 73.2754L107.824 79.4334L107.674 79.8886L106.734 82.7485L106.727 82.7681L103.699 82.7023L92.0783 82.4414L91.2286 80.0336L91.0855 79.6309L88.8365 73.2748C95.8126 75.6661 101.563 70.4383 109.849 73.2748L109.849 73.2754Z" fill="#FBC343"/>
<path d="M107.674 79.8891L106.734 82.7491L103.699 82.7028L92.0783 82.442L91.2286 80.0341C95.2231 79.9651 102.096 79.8727 107.673 79.8891H107.674Z" fill="#E49B31"/>
<path d="M120.657 114.665C120.061 116.552 118.878 118.135 117.349 119.25C115.816 120.365 113.938 121.005 111.942 121.005H85.6227C81.8181 121.005 78.4795 118.488 77.4671 114.853C76.884 112.752 76.5712 110.621 76.5212 108.5C76.5181 108.296 76.5143 108.091 76.5143 107.887C76.5143 107.645 76.5174 107.403 76.5244 107.162C76.739 99.4752 80.5328 92.3156 86.6224 87.5423L92.9184 82.6069L107.328 82.9368L115.248 90.4402C116.363 91.4957 117.355 92.6752 118.151 93.9827C119.105 95.5491 119.878 97.2029 120.464 98.9111C122.193 103.945 122.307 109.459 120.657 114.664V114.665Z" fill="#FBC343"/>
<path d="M97.2207 114.114V111.357C95.2554 111.27 93.3502 110.748 92.2346 110.109L93.116 106.711C94.3481 107.378 96.0772 107.988 97.9849 107.988C99.6564 107.988 100.8 107.35 100.8 106.188C100.8 105.027 99.8622 104.387 97.6917 103.661C94.5539 102.616 92.4119 101.164 92.4119 98.3489C92.4119 95.7935 94.2316 93.7908 97.3688 93.1811V90.4219H100.241V92.9773C102.207 93.0646 103.527 93.4711 104.494 93.9346L103.644 97.2162C102.882 96.8971 101.533 96.2278 99.4196 96.2278C97.5138 96.2278 96.8978 97.0408 96.8978 97.8544C96.8978 98.8117 97.9247 99.4221 100.417 100.351C103.906 101.571 105.315 103.166 105.315 105.781C105.315 108.396 103.467 110.571 100.095 111.153V114.113H97.22L97.2207 114.114Z" fill="white"/>
<path d="M109.704 81.5894H89.338C88.4869 81.5894 87.7969 82.2793 87.7969 83.1304V83.7294C87.7969 84.5805 88.4869 85.2705 89.338 85.2705H109.704C110.555 85.2705 111.245 84.5805 111.245 83.7294V83.1304C111.245 82.2793 110.555 81.5894 109.704 81.5894Z" fill="#ED7545"/>
<path opacity="0.4" d="M120.657 114.665C120.061 116.552 118.878 118.135 117.349 119.25C115.816 120.365 113.938 121.005 111.942 121.005H85.6227C81.8181 121.005 78.4795 118.488 77.4671 114.853C76.884 112.752 76.5712 110.621 76.5212 108.5C80.8754 112.61 86.0064 117.983 98.0001 118.148C112.894 118.353 119.312 111.442 120.465 98.9111C122.194 103.945 122.307 109.459 120.658 114.664L120.657 114.665Z" fill="#E49B31"/>
<path d="M19.6818 101.254L17.0168 100.264L10.8253 105.652H18.1521L19.6818 101.254Z" fill="#102048"/>
<path d="M19.6818 101.253H25.5675L24.9014 105.432L18.1521 105.651L19.6818 101.253Z" fill="#F9B384"/>
<path d="M43.307 77.8335L43.0905 79.2948L42.9607 80.1755L42.028 86.5051L41.6716 88.923L41.355 91.0802L40.5256 96.7006L39.9494 100.6C39.5163 103.532 36.9774 105.706 33.9826 105.706H20.9595L20.9759 105.541L21.3989 101.253L21.459 100.65L30.5377 98.9179L31.7571 90.1507C31.1575 87.601 31.3038 85.147 31.564 83.4254C31.7837 81.9578 32.0902 81.0239 32.0902 81.0239L36.1417 79.8729L43.3076 77.8341L43.307 77.8335Z" fill="#1F3C88"/>
<path d="M40.5249 96.7007L39.9488 100.6C39.5157 103.532 36.9768 105.706 33.982 105.706H33.3159C39.2827 104.649 38.1165 97.1034 40.5256 96.7013L40.5249 96.7007Z" fill="#102048"/>
<path d="M15.3257 105.739L15.0427 105.565L16.3198 103.53L16.6028 103.704L15.3257 105.739Z" fill="white"/>
<path d="M42.028 86.5049L41.355 91.08C39.4796 90.5488 37.0059 87.8946 37.0059 87.8946L42.0274 86.5049H42.028Z" fill="#102048"/>
<path d="M55.8268 98.175C55.8268 98.175 52.6617 99.7832 46.9982 98.7524L51.7038 95.6602L55.8268 98.175Z" fill="#102048"/>
<path d="M54.0844 100.392L49.0243 100.504L48.9939 99.4217L48.9141 96.4561L53.412 96.7859L53.6247 97.9306L54.0844 100.392Z" fill="#F9B384"/>
<path d="M53.6247 97.9306L48.9939 99.4217L48.9141 96.4561L53.412 96.7859L53.6247 97.9306Z" fill="#E28B6D"/>
<path d="M59.8245 105.693L54.244 101.24L54.0857 100.393L49.023 100.504L49.1636 105.693H59.8245Z" fill="#102048"/>
<path d="M54.1965 104.005L54.0198 103.725L56.0187 102.488L56.1953 102.768L54.1965 104.005Z" fill="white"/>
<path d="M32.0889 81.0231L50.1975 78.1758C51.0447 78.0429 51.9121 78.1556 52.6959 78.5C54.2535 79.1851 55.2766 80.6932 55.3292 82.3793L55.8262 98.1744C55.8262 98.1744 50.6623 97.1025 46.9976 98.7518L46.6646 87.9491C44.4505 88.9469 40.6149 89.1584 36.728 88.7734L32.0889 81.0218V81.0231Z" fill="#1F3C88"/>
<path d="M53.2752 97.6799H52.9422C52.9422 94.9466 53.0087 92.678 53.0676 90.676C53.2107 85.8014 53.2892 83.1163 52.0349 81.9804C51.02 81.0604 48.9914 81.0896 46.0485 81.434C42.8948 81.7981 41.6367 78.4734 41.6247 78.4399L41.9381 78.3271C41.985 78.455 43.1177 81.4505 46.0099 81.106C49.125 80.742 51.1466 80.7274 52.2603 81.7366C53.6273 82.9751 53.5513 85.552 53.4006 90.6855C53.3417 92.685 53.2752 94.951 53.2752 97.6793V97.6799Z" fill="#3A6BEA"/>
<path d="M47.0046 96.7629L46.8862 96.4545C46.9286 96.4387 51.1523 94.8824 55.8142 96.0366L55.7331 96.357C51.177 95.2281 47.0451 96.7477 47.0039 96.7635L47.0046 96.7629Z" fill="#3A6BEA"/>
<path d="M22.8089 105.753C22.2903 104.725 23.0932 100.469 23.1273 100.288L23.4547 100.35C23.2261 101.55 22.7177 104.834 23.1071 105.605L22.8089 105.752V105.753Z" fill="#3A6BEA"/>
<path d="M41.5044 79.7036C41.5044 79.7036 40.2248 82.3983 37.3402 84.2129C36.3607 84.8264 35.3977 85.1069 34.5347 85.1101C33.2324 85.1132 32.1491 84.4864 31.5628 83.4246C31.7825 81.957 32.0889 81.0231 32.0889 81.0231L36.1404 79.872L40.228 79.7435L41.5038 79.7036H41.5044Z" fill="#102048"/>
<path d="M38.2526 63.4619V67.2798H42.0287V63.9779L38.2526 63.4619Z" fill="#ED7545"/>
<path d="M42.0287 61.6167H38.2526V63.4617L42.0287 63.9777V61.6167Z" fill="#F9B384"/>
<path d="M39.3657 62.1389C39.4492 62.1389 40.2761 63.4242 42.028 63.9769L42.0027 61.9736L39.365 62.1383L39.3657 62.1389Z" fill="#102048"/>
<path d="M42.4725 57.0544C42.4725 57.0544 44.5549 62.6071 41.8615 62.9641C39.1687 63.3212 38.7521 62.1119 38.7521 62.1119L37.9195 59.171L39.7797 56.6973L42.4725 57.0544Z" fill="#F9B384"/>
<path d="M43.1664 60.2979C43.4885 60.2979 43.7496 60.0394 43.7496 59.7205C43.7496 59.4016 43.4885 59.1431 43.1664 59.1431C42.8444 59.1431 42.5833 59.4016 42.5833 59.7205C42.5833 60.0394 42.8444 60.2979 43.1664 60.2979Z" fill="#F9B384"/>
<path d="M39.6404 59.6932C39.6404 59.6932 39.7791 56.7243 42.4725 57.0542C42.4725 57.0542 40.6604 54.7495 38.2722 55.6435C37.0597 56.0975 36.248 57.2435 36.1296 58.5218C35.9764 60.1737 36.9508 62.0567 38.3108 62.3866C38.3108 62.3866 38.7553 61.3697 39.5018 60.0775L39.6404 59.6925V59.6932Z" fill="#102048"/>
<path d="M40.285 59.554C40.5104 60.0282 40.361 60.5664 39.9513 60.757C39.5417 60.9475 39.0276 60.7177 38.8028 60.2441C38.5774 59.7699 38.7268 59.2317 39.1364 59.0411C39.5461 58.8506 40.0602 59.0804 40.285 59.554Z" fill="#F9B384"/>
<path opacity="0.4" d="M41.5589 60.8064C41.9806 60.8064 42.3224 60.4679 42.3224 60.0504C42.3224 59.6329 41.9806 59.2944 41.5589 59.2944C41.1372 59.2944 40.7953 59.6329 40.7953 60.0504C40.7953 60.4679 41.1372 60.8064 41.5589 60.8064Z" fill="#EB5D60"/>
<path d="M39.7126 60.2148C39.667 60.2148 39.6297 60.1781 39.6297 60.1325C39.6297 60.1129 39.6202 59.6526 39.1048 59.5817C39.0592 59.5753 39.0275 59.5335 39.0339 59.4886C39.0402 59.4436 39.0826 59.4145 39.1276 59.4183C39.7886 59.5101 39.7962 60.1262 39.7962 60.1325C39.7962 60.1781 39.7595 60.2148 39.7132 60.2148H39.7126Z" fill="#102048"/>
<path d="M52.3287 58.0161C52.3287 58.0161 55.2412 58.2358 56.8266 60.0776L53.2202 60.9571L52.3293 58.0161H52.3287Z" fill="#BA5C36"/>
<path d="M57.4895 56.4363C57.5028 56.7003 56.7696 58.016 56.2301 58.9499C55.9136 59.4874 55.6673 59.8964 55.6673 59.8964L53.7248 60.4574L52.3388 58.3896L52.2723 58.2876C52.2723 58.2876 52.2926 58.1983 52.3287 58.0401V58.0369C52.3319 58.0337 52.3319 58.0268 52.3357 58.0173C52.5687 57.0378 53.3949 53.6998 53.8717 53.5871C54.2914 53.4915 54.0452 55.3188 54.0452 55.3188C54.0452 55.3188 55.081 52.3468 55.6945 52.469C56.1839 52.5646 55.2247 55.4144 55.2247 55.4144C55.2247 55.4144 55.5679 55.0579 55.9142 55.17C56.284 55.2922 56.3308 55.6354 56.3308 55.6354C56.3308 55.6354 56.5771 55.4638 56.824 55.6088C57.0703 55.7569 57.0475 56.2191 57.0475 56.2191C57.0475 56.2191 57.4641 56.0247 57.4907 56.4369L57.4895 56.4363Z" fill="#F9B384"/>
<path d="M37.37 65.9395L36.0505 71.0458L34.0048 78.962C32.6157 79.5724 31.1499 79.7965 29.9869 79.6053C28.6376 79.3843 27.6949 78.6055 27.7582 77.2304C27.9247 73.5195 37.37 65.9395 37.37 65.9395Z" fill="#ED7545"/>
<path d="M37.1167 67.3892L36.0505 71.0449L34.0048 78.9612C32.6157 79.5715 31.1499 79.7957 29.9869 79.6045C32.9519 71.1823 37.1167 67.3892 37.1167 67.3892Z" fill="#BA5C36"/>
<path d="M45.3628 78.9418C42.6143 79.1266 33.9523 86.2179 31.8698 81.6434C31.8698 81.6434 32.1598 64.5769 41.0581 64.8935C42.634 64.9499 44.0167 65.9889 44.4929 67.4761C44.7062 68.1491 44.919 69.0267 45.0861 70.1543C45.2558 71.2991 45.3824 72.704 45.4261 74.416C45.4629 75.7355 45.4464 77.2361 45.3628 78.9418Z" fill="#ED7545"/>
<path d="M45.4261 74.4165C44.0503 73.5358 42.6143 70.8804 42.6143 70.8804L45.0861 70.1548C45.2558 71.2995 45.3824 72.7045 45.4261 74.4165Z" fill="#BA5C36"/>
<path d="M56.2301 58.9497C55.9136 59.4873 55.6673 59.8963 55.6673 59.8963L53.7248 60.4572L52.3388 58.3894L52.3287 58.0399V58.0171H52.3357L56.2301 58.9503V58.9497Z" fill="#E28B6D"/>
<path d="M41.0587 64.8938C41.0587 64.8938 45.3318 65.1908 47.9138 65.6853L52.3281 58.0166C53.6767 59.0847 55.1747 59.7736 56.8259 60.0781L52.9625 69.0903C52.1103 70.8017 50.3767 71.911 48.4507 71.9762L41.8343 72.2003L41.0593 64.8945L41.0587 64.8938Z" fill="#ED7545"/>
<path d="M47.9144 65.809C47.9068 65.809 47.8992 65.809 47.8916 65.8071C47.8106 65.7919 39.7411 64.3274 38.3659 65.5304C38.314 65.5753 38.2355 65.5709 38.1893 65.5196C38.1437 65.4683 38.1487 65.3905 38.2 65.3449C39.6658 64.0621 47.5997 65.5013 47.9366 65.5633C48.0043 65.576 48.0493 65.6405 48.0366 65.7077C48.0252 65.7672 47.9726 65.809 47.9138 65.809H47.9144Z" fill="#BA5C36"/>
<path d="M126.51 111.844L127.065 118.88H117.82L122.484 115.692L122.401 111.294L126.51 111.844Z" fill="#102048"/>
<path d="M140.142 108.848L142.64 114.868L136.311 120.145L137.227 114.208L135.977 110.249L140.142 108.848Z" fill="#102048"/>
<path d="M128.954 74.9004C128.87 75.1315 128.794 75.4284 128.721 75.7779C128.598 76.3883 128.491 77.1664 128.401 78.0839C128.108 81.0786 127.985 85.5284 127.952 90.2555C127.882 100.899 128.288 112.946 128.288 112.946L126.596 112.919L122.431 112.856L120.959 112.833C118.727 95.9715 119.363 81.732 119.699 76.7745C119.709 76.6029 119.723 76.4446 119.729 76.2965C119.799 75.386 119.846 74.901 119.846 74.901H128.954V74.9004Z" fill="#1F3C88"/>
<path d="M141.724 110.415L140.877 110.622L136.44 111.721L133.728 112.394C133.728 112.394 130.517 100.595 127.951 90.2548C126.718 85.2675 125.632 80.6202 125.132 77.7995C124.959 76.8036 124.856 76.0349 124.842 75.5601L128.72 75.7779L133.618 76.0552C133.618 76.0552 133.737 76.751 133.971 78.0015C134.904 82.9856 137.639 96.7863 141.724 110.415V110.415Z" fill="#1F3C88"/>
<path d="M133.971 78.0009C131.999 78.1624 130.12 78.1693 128.401 78.0832C127.231 78.0237 126.135 77.9218 125.132 77.7996C122.654 77.4931 120.741 77.0474 119.699 76.7739C119.129 76.6219 118.819 76.5231 118.819 76.5231L119.728 76.2958L125.339 74.9004H128.953C128.87 75.1315 128.793 75.4284 128.72 75.7779L133.618 76.0552C133.618 76.0552 133.737 76.7511 133.971 78.0015V78.0009Z" fill="#102048"/>
<path d="M128.125 91.5418C127.855 90.4237 126.582 85.1267 126.416 84.2302L123.841 83.2748L123.958 82.9658L126.732 83.9953V84.1099C126.751 84.3543 127.769 88.6439 128.449 91.4658L128.125 91.5424V91.5418Z" fill="#3A6BEA"/>
<path d="M121.587 96.3687C120.375 96.3687 119.606 96.0711 119.563 96.054L119.686 95.7476C119.699 95.7533 121.058 96.2743 122.98 95.9039L123.044 96.2275C122.51 96.3301 122.02 96.368 121.587 96.368V96.3687Z" fill="#3A6BEA"/>
<path d="M131.232 96.1373C130.456 96.1373 129.806 96.0177 129.755 96.0082L129.817 95.684C129.84 95.6884 132.093 96.1012 133.133 95.3813L133.324 95.6511C132.77 96.0354 131.948 96.1373 131.232 96.1373Z" fill="#3A6BEA"/>
<path d="M123.687 116.813L122.383 115.823L122.586 115.561L123.891 116.551L123.687 116.813Z" fill="white"/>
<path d="M138.941 115.075L137.164 114.36L137.289 114.055L139.066 114.769L138.941 115.075Z" fill="white"/>
<path d="M124.067 56.8696C124.067 56.8696 118.348 57.5845 116.904 63.9615L118.625 71.5479L117.848 76.6054C117.848 76.6054 125.622 77.3753 133.617 76.0559L131.188 63.1644L124.067 56.8696Z" fill="#ED7545"/>
<path d="M127.621 73.0315C127.621 73.0315 125.899 71.781 128.148 66.2974L129.647 71.6987L127.621 73.0321V73.0315Z" fill="#6E3620"/>
<path d="M120.913 66.1394L120.497 65.3619L126.896 62.0075C127.075 61.9138 127.297 61.9815 127.391 62.1582L127.464 62.2943C127.559 62.4716 127.491 62.6907 127.312 62.7844L120.912 66.1388L120.913 66.1394Z" fill="#102048"/>
<path d="M129.064 71.245L128.894 71.1525L126.685 69.9717L122.984 67.9893C122.918 67.5474 122.968 67.1713 123.234 66.9142L123.051 66.8414C122.751 66.7161 122.531 66.4489 122.471 66.1291L122.464 66.0893C122.367 65.7695 122.414 65.4726 122.444 65.3073L122.531 65.1952C122.747 64.9148 122.844 64.7729 123.124 64.552L122.651 64.5786C122.651 64.5786 121.485 64.8951 122.028 64.1531C122.401 63.6383 123.237 63.2034 123.714 62.9856C123.914 62.8931 124.157 62.933 124.31 63.0913C125.913 64.7375 128.732 66.7097 128.732 66.7097L128.761 67.1124L129.034 70.8163L129.064 71.245Z" fill="#F9B384"/>
<path d="M124.696 64.9428L123.687 64.4553C123.582 64.404 123.465 64.3875 123.35 64.4078L122.276 64.5927L122.248 64.43L123.322 64.2451C123.472 64.2191 123.624 64.2407 123.762 64.3065L124.77 64.794L124.697 64.9422L124.696 64.9428Z" fill="#E28B6D"/>
<path d="M124.509 65.8796L123.299 65.4212C123.246 65.401 123.189 65.3902 123.131 65.3902H122.443V65.2256H123.131C123.209 65.2256 123.286 65.2395 123.359 65.2674L124.568 65.7264L124.509 65.8803V65.8796Z" fill="#E28B6D"/>
<path d="M124.342 66.8143L123.244 66.4034C123.158 66.3711 123.064 66.3591 122.971 66.3698L122.521 66.4205L122.502 66.2565L122.952 66.2059C123.07 66.1926 123.192 66.2077 123.303 66.2495L124.401 66.6604L124.342 66.8143Z" fill="#E28B6D"/>
<path d="M129.034 70.8161L128.894 71.153L126.685 69.9721L128.148 66.2974L128.761 67.1122L129.034 70.8161Z" fill="#E28B6D"/>
<path d="M127.621 73.0319C127.621 73.0319 130.924 76.1381 133.617 76.0552L132.84 72.3994L127.621 73.0319Z" fill="#BA5C36"/>
<path d="M124.067 56.8695C124.067 56.8695 124.474 56.8278 125.152 56.8506C131.821 57.0766 136.93 62.7572 136.604 69.3558C136.47 72.0834 135.754 74.7914 133.451 74.8458L127.621 73.0319C128.171 70.9906 128.582 68.8734 128.149 66.2977L130.855 67.5761L124.067 56.8695H124.067Z" fill="#ED7545"/>
<path d="M125.969 72.7791L117.82 72.9773L117.597 72.2941L116.777 69.8008L114.405 62.5867L122.554 62.3892L125.969 72.7791Z" fill="#D3DFFF"/>
<path opacity="0.3" d="M118.506 68.9365C118.506 68.9365 118.493 71.1665 117.597 72.2941L116.778 69.8008L118.507 68.9365H118.506Z" fill="#1F3C88"/>
<path d="M114.554 68.7626C114.81 67.9421 115.278 67.1848 115.792 66.5017C115.955 66.2845 116.312 65.7495 116.654 65.8312C117.348 65.9958 116.654 67.2057 116.654 67.2057C116.654 67.2057 117.32 66.2161 117.57 66.7112C117.82 67.2057 117.459 67.7559 117.459 67.7559C117.459 67.7559 118.514 67.069 118.125 68.4429C118.125 68.4429 118.986 68.3327 118.458 69.2672C118.082 69.9346 117.838 70.6779 117.366 71.2908C116.891 71.9081 115.998 72.2544 115.256 71.9024C114.385 71.489 114.273 70.3848 114.38 69.5439C114.414 69.278 114.473 69.0178 114.553 68.7633L114.554 68.7626Z" fill="#F9B384"/>
<path d="M116.05 68.5445C116.038 68.5445 116.027 68.542 116.016 68.5375C115.974 68.5192 115.955 68.4704 115.974 68.4286L116.765 66.6558C116.784 66.614 116.833 66.5957 116.875 66.614C116.917 66.6324 116.936 66.6812 116.917 66.7229L116.126 68.4958C116.112 68.5268 116.081 68.5451 116.05 68.5451V68.5445Z" fill="#E28B6D"/>
<path d="M116.862 69.2046C116.85 69.2046 116.838 69.202 116.827 69.197C116.785 69.1773 116.767 69.1286 116.786 69.0874L117.536 67.5001C117.556 67.459 117.605 67.4413 117.647 67.4603C117.688 67.4799 117.706 67.5286 117.687 67.5698L116.937 69.1571C116.924 69.1868 116.893 69.2046 116.862 69.2046Z" fill="#E28B6D"/>
<path d="M117.487 69.7408C117.474 69.7408 117.461 69.7377 117.448 69.7313C117.408 69.7104 117.392 69.6604 117.414 69.6199L118.059 68.4036C118.081 68.3637 118.131 68.3486 118.172 68.3688C118.213 68.3897 118.228 68.4397 118.207 68.4802L117.561 69.6965C117.546 69.7244 117.517 69.7408 117.488 69.7408H117.487Z" fill="#E28B6D"/>
<path d="M120.18 63.1092H117.265L116.765 62.1196H119.68L120.18 63.1092Z" fill="#102048"/>
<path d="M123.988 60.0907C123.123 60.0907 122.555 59.6671 122.547 59.6607C122.492 59.619 122.482 59.5417 122.524 59.4873C122.566 59.4334 122.644 59.4233 122.699 59.4645C122.747 59.4999 123.877 60.3331 125.391 59.429C125.449 59.3936 125.526 59.4126 125.562 59.4708C125.598 59.5291 125.579 59.605 125.52 59.6405C124.955 59.978 124.433 60.09 123.988 60.09L123.988 60.0907Z" fill="#BA5C36"/>
<path d="M127.621 73.1557C127.609 73.1557 127.597 73.1537 127.585 73.1506C127.519 73.131 127.481 73.0626 127.501 72.9967C128.699 68.9807 128.034 66.355 128.028 66.3284L127.979 66.1436L133.138 66.9996C133.206 67.011 133.252 67.0743 133.241 67.142C133.23 67.2098 133.162 67.2554 133.097 67.2433L128.309 66.4487C128.437 67.1205 128.778 69.5891 127.741 73.0664C127.725 73.1202 127.675 73.155 127.621 73.155L127.621 73.1557Z" fill="#BA5C36"/>
<path d="M131.396 66.916C131.396 66.916 131.391 66.916 131.388 66.916C131.319 66.9116 131.267 66.8533 131.271 66.785C131.273 66.7584 131.411 64.0979 129.543 61.3646C129.505 61.3082 129.52 61.231 129.577 61.193C129.634 61.155 129.712 61.1696 129.75 61.2259C131.668 64.032 131.523 66.7729 131.521 66.8002C131.516 66.866 131.462 66.916 131.396 66.916Z" fill="#BA5C36"/>
<path d="M126.357 53.8335V57.017C126.357 58.0439 125.548 58.8765 124.55 58.8765C123.553 58.8765 122.744 58.0446 122.744 57.017V53.8335H126.357H126.357Z" fill="#F9B384"/>
<path d="M124.65 54.2583C124.65 54.2583 124.462 56.2249 122.744 56.7941V54L124.65 54.2583Z" fill="#102048"/>
<path d="M121.38 50.2047C121.38 50.2047 120.82 54.6697 122.578 55.1996C124.336 55.7296 125.941 54.1904 125.941 54.1904L125.61 50.5074L123.011 48.9941L121.38 50.2047Z" fill="#F9B384"/>
<path d="M131.383 58.8827L127.914 59.11C127.476 58.6314 127.227 57.9596 127.065 57.2005C126.918 57.9818 127.034 58.6307 127.421 59.143L126.482 59.2056C125.649 57.9723 124.949 55.2409 125.775 52.9058L125.872 52.355C125.872 52.355 125.279 50.5771 124.419 50.5011C124.419 50.5011 121.471 52.4702 120.158 50.2739C119.179 48.6378 120.005 46.487 122.36 48.0737C122.36 48.0737 128.021 45.4448 128.007 50.8342C128.004 51.8004 128.371 52.7507 129.093 53.3972C129.153 53.4567 129.22 53.5124 129.29 53.5656C130.559 54.5615 131.928 56.5477 131.381 58.8827H131.383Z" fill="#102048"/>
<path d="M126.746 52.6516C126.922 52.1401 126.707 51.6023 126.265 51.4503C125.824 51.2983 125.323 51.5898 125.147 52.1012C124.971 52.6127 125.186 53.1505 125.627 53.3025C126.069 53.4545 126.569 53.1631 126.746 52.6516Z" fill="#F9B384"/>
<path d="M125.843 52.6911C125.797 52.6911 125.76 52.6544 125.76 52.6088C125.76 52.253 126.045 51.9383 126.381 51.9219H126.385C126.43 51.9219 126.466 51.9561 126.468 52.0004C126.471 52.046 126.435 52.0846 126.389 52.0871C126.166 52.0979 125.927 52.3106 125.927 52.6095C125.927 52.6551 125.89 52.6918 125.844 52.6918L125.843 52.6911Z" fill="#102048"/>
<path d="M121.998 51.9081C121.998 52.022 121.905 52.1145 121.79 52.1145C121.675 52.1145 121.582 52.022 121.582 51.9081C121.582 51.7941 121.675 51.7017 121.79 51.7017C121.905 51.7017 121.998 51.7941 121.998 51.9081Z" fill="#102048"/>
<path d="M123.254 51.805C123.254 51.919 123.161 52.0114 123.046 52.0114C122.931 52.0114 122.838 51.919 122.838 51.805C122.838 51.6911 122.931 51.5986 123.046 51.5986C123.161 51.5986 123.254 51.6911 123.254 51.805Z" fill="#102048"/>
<path d="M122.297 53.2891C122.276 53.2891 122.255 53.2815 122.239 53.2657C122.069 53.1017 122 52.9466 122.033 52.8035C122.066 52.6585 122.196 52.5743 122.274 52.5357L122.255 52.1286C122.253 52.083 122.289 52.0444 122.335 52.0425C122.381 52.0425 122.42 52.076 122.422 52.121L122.445 52.6465L122.386 52.6668C122.34 52.6826 122.217 52.7446 122.195 52.8409C122.172 52.9447 122.269 53.065 122.355 53.1486C122.388 53.1802 122.389 53.2328 122.357 53.2651C122.34 53.2815 122.319 53.2898 122.297 53.2898V53.2891Z" fill="#102048"/>
<path d="M122.465 53.8831C122.395 53.8831 122.352 53.8767 122.346 53.8755C122.3 53.8685 122.27 53.8261 122.277 53.7811C122.284 53.7362 122.33 53.7064 122.372 53.7121C122.376 53.7128 122.798 53.7723 123.168 53.4532C123.202 53.4228 123.256 53.4266 123.285 53.4614C123.316 53.4956 123.312 53.5475 123.277 53.5779C122.97 53.8432 122.637 53.8831 122.464 53.8831H122.465Z" fill="#102048"/>
<path opacity="0.4" d="M124.082 53.2897C124.384 53.2897 124.628 53.0473 124.628 52.7484C124.628 52.4494 124.384 52.207 124.082 52.207C123.78 52.207 123.536 52.4494 123.536 52.7484C123.536 53.0473 123.78 53.2897 124.082 53.2897Z" fill="#EB5D60"/>
</g>
</g>
<defs>
<clipPath id="clip0_2_1374">
<rect width="170" height="120.03" fill="white" transform="translate(0 0.974609)"/>
</clipPath>
<clipPath id="clip1_2_1374">
<rect width="169.98" height="120.03" fill="white" transform="translate(0.00990295 0.974609)"/>
</clipPath>
</defs>
</svg>
